<svg xmlns="http://www.w3.org/2000/svg" width="1400" height="800"><g transform="translate(0 -76)" stroke-miterlimit="10" fill="none" stroke="#42b2a6" stroke-width="4"><path d="M1074.15 109.792l-28.699 28.696v113.38"/><circle r="6.587" cy="105.087" cx="1077.913"/></g><g transform="translate(36 24)" stroke-miterlimit="10" fill="none" stroke="#005d53" stroke-width="4"><path d="M587.518 738.383l13.801-11.762V613.242"/><circle r="6.587" cy="743.087" cx="582.5"/></g><g stroke-miterlimit="10" fill="none" stroke="#005d53" stroke-width="4"><path d="M1337.795 418.896l-11.762-13.801h-113.378"/><circle r="6.587" cy="423.913" cx="1342.499"/></g><g transform="translate(34)" stroke-miterlimit="10" fill="none" stroke="#005d53" stroke-width="4"><path d="M88.205 400.104l11.762 13.801h113.379"/><circle r="6.587" cy="395.087" cx="83.501"/></g><g stroke-miterlimit="10" fill="none" stroke="#005d53" stroke-width="4"><path d="M107.205 567.518l11.762 13.8h113.379"/><circle r="6.587" cy="562.5" cx="102.501"/></g><g transform="translate(-10 -30)" stroke-miterlimit="10" fill="none" stroke="#009686" stroke-width="4"><path d="M856.895 129.203l-13.798 11.762v113.379"/><circle r="6.587" cy="124.499" cx="861.912"/></g><g transform="translate(-2 -2)" stroke-miterlimit="10" fill="none" stroke="#42b2a6" stroke-width="4"><path d="M1216.264 738.383l28.698-28.697v-113.38"/><circle r="6.587" cy="743.087" cx="1212.5"/></g><g transform="translate(2 -10)" stroke-miterlimit="10" fill="none" stroke="#42b2a6" stroke-width="4"><path d="M1209.528 723.053l13.8-11.762v-113.38"/><circle r="6.586" cy="727.757" cx="1204.51"/></g><g stroke-miterlimit="10" fill="none" stroke="#42b2a6" stroke-width="4"><path d="M375.448 723.053l28.698-28.698V580.976"/><circle r="6.587" cy="727.757" cx="371.684"/></g><g transform="translate(-6 4)" stroke-miterlimit="10" fill="none" stroke="#42b2a6" stroke-width="4"><path d="M381.528 695.053l13.8-11.762v-113.38"/><circle r="6.586" cy="699.757" cx="376.51"/></g><g stroke-miterlimit="10" fill="none" stroke="#009686" stroke-width="4"><path d="M1050.702 724.262L1064.5 712.5V599.121"/><circle r="6.587" cy="728.966" cx="1045.685"/></g><g transform="translate(-40)" stroke-miterlimit="10" fill="none" stroke="#005d53" stroke-width="4"><path d="M1350.771 288.357l-28.697 28.004h-113.379"/><ellipse ry="6.428" rx="6.587" cy="284.683" cx="1355.476"/></g><g transform="translate(-40)" stroke-miterlimit="10" fill="none" stroke="#009686" stroke-width="4"><path d="M1329.13 293.254l-11.761 13.465H1203.99"/><ellipse ry="6.426" rx="6.586" cy="288.357" cx="1333.836"/></g><g stroke-miterlimit="10" fill="none" stroke="#005d53" stroke-width="4"><path d="M208.825 743.208l-28.003-28.696v-113.38"/><ellipse ry="6.587" rx="6.428" cy="747.913" cx="212.5"/></g><g stroke-miterlimit="10" fill="none" stroke="#009686" stroke-width="4"><path d="M258.03 731.795l-13.465-11.761v-113.38"/><ellipse ry="6.586" rx="6.426" cy="736.5" cx="262.926"/></g><g stroke-miterlimit="10" fill="none" stroke="#009686" stroke-width="4"><path d="M669.654 66.713l28.003 28.698V208.79"/><ellipse ry="6.587" rx="6.425" cy="62.009" cx="665.981"/></g><g transform="translate(-30)" stroke-miterlimit="10" fill="none" stroke="#009686" stroke-width="4"><path d="M529.606 715.21l-13.468-11.763V590.069"/><ellipse ry="6.586" rx="6.427" cy="719.914" cx="534.5"/></g><g transform="translate(-16 6)" stroke-miterlimit="10" fill="none" stroke="#009686" stroke-width="4"><path d="M1196.032 693.796l-13.467-11.763V568.655"/><ellipse ry="6.586" rx="6.427" cy="698.5" cx="1200.927"/></g><g transform="translate(-963.374 26.576)" stroke-miterlimit="10" fill="none" stroke="#009686" stroke-width="4"><path d="M640.032 693.796l-13.467-11.763V568.655"/><ellipse ry="6.586" rx="6.427" cy="698.5" cx="644.927"/></g><g transform="translate(-797.275 205.963)" stroke-miterlimit="10" fill="none" stroke="#009686" stroke-width="4"><path d="M431.606 686.383l-13.468-11.763V561.242"/><ellipse ry="6.586" rx="6.427" cy="691.086" cx="436.5"/></g><g stroke-miterlimit="10" fill="none" stroke="#009686" stroke-width="4"><path d="M1258.643 78.618l-29.423 28.697v113.38"/><ellipse ry="6.586" rx="6.752" cy="73.914" cx="1262.5"/></g><g transform="translate(0 -16)" stroke-miterlimit="10" fill="none" stroke="#009686" stroke-width="4"><path d="M291.032 110.739L304.5 122.5v113.379"/><ellipse ry="6.587" rx="6.427" cy="106.034" cx="286.136"/></g><g transform="translate(0 -2)" stroke-miterlimit="10" fill="none" stroke="#005d53" stroke-width="4"><path d="M445.519 716.383l13.799-11.762V591.243"/><circle r="6.587" cy="721.087" cx="440.5"/></g><g stroke-miterlimit="10" fill="none" stroke="#005d53" stroke-width="4"><path d="M155.519 708.383l13.799-11.762V583.243"/><circle r="6.587" cy="713.087" cx="150.5"/></g><g stroke-miterlimit="10" fill="none" stroke="#42b2a6" stroke-width="4"><path d="M299.896 741.129L342.5 710.5V597.121"/><circle r="6.587" cy="745.833" cx="294.877"/></g><g stroke-miterlimit="10" fill="none" stroke="#009686" stroke-width="4"><path d="M458.106 727.795l13.799-11.762V602.656"/><path d="M453.088 725.914a6.585 6.585 0 0 1 6.585 6.586 6.586 6.586 0 1 1-6.585-6.586z"/></g><g stroke-miterlimit="10" fill="none" stroke="#009686" stroke-width="4"><path d="M940.508 755.246L976.5 726.5V613.121"/><circle r="6.587" cy="759.951" cx="935.49"/></g><g transform="translate(0 -76)" stroke-miterlimit="10" fill="none" stroke="#42b2a6" stroke-width="4"><path d="M1109.617 108.856l-28.698 28.698v113.38"/><circle r="6.587" cy="104.152" cx="1113.381"/></g><g transform="translate(54 -30)" stroke-miterlimit="10" fill="none" stroke="#005d53" stroke-width="4"><path d="M582.139 114.474l28.004 28.696v113.38"/><ellipse ry="6.587" rx="6.428" cy="109.769" cx="578.464"/></g><g transform="translate(0 -54)" stroke-miterlimit="10" fill="none" stroke="#009686" stroke-width="4"><path d="M955.459 116.699l13.468 11.763V241.84"/><ellipse ry="6.586" rx="6.427" cy="111.996" cx="950.565"/></g><g stroke-miterlimit="10" fill="none" stroke="#009686" stroke-width="4"><path d="M1137.887 80.113l13.468 11.763v113.378"/><ellipse ry="6.586" rx="6.427" cy="75.41" cx="1132.992"/></g><g stroke-miterlimit="10" fill="none" stroke="#009686" stroke-width="4"><path d="M214.968 80.113l13.468 11.763v113.378"/><ellipse ry="6.586" rx="6.427" cy="75.41" cx="210.073"/></g><g transform="translate(38 -36)" stroke-miterlimit="10" fill="none" stroke="#005d53" stroke-width="4"><path d="M1185.546 115.526l-13.799 11.762v113.378"/><circle r="6.587" cy="110.822" cx="1190.565"/></g><g transform="matrix(-1 0 0 1 532.77 -8)" stroke-miterlimit="10" fill="none" stroke="#005d53" stroke-width="4"><path d="M259.482 109.791l-13.799 11.762v113.378"/><circle r="6.587" cy="105.087" cx="264.5"/></g><g stroke-miterlimit="10" fill="none" stroke="#009686" stroke-width="4"><path d="M544.557 76.663l-35.992 28.746v113.379"/><circle r="6.587" cy="71.958" cx="549.574"/></g><g stroke-miterlimit="10" fill="none" stroke="#42b2a6" stroke-width="4"><path d="M1332.383 629.481l-30.578-38.262h-113.379"/><circle r="6.586" cy="634.5" cx="1337.086"/></g><g stroke-miterlimit="10" fill="none" stroke="#009686" stroke-width="4"><path d="M1303.801 623.641l-11.762-13.8h-113.378"/><circle r="6.587" cy="628.658" cx="1308.506"/></g><g stroke-miterlimit="10" fill="none" stroke="#009686" stroke-width="4"><path d="M1306.849 358.5l-28.695 28.005h-113.379"/><ellipse ry="6.427" rx="6.584" cy="354.828" cx="1311.555"/></g><g stroke-miterlimit="10" fill="none" stroke="#005d53" stroke-width="4"><path d="M1285.209 363.397l-11.76 13.465H1160.07"/><ellipse ry="6.427" rx="6.586" cy="358.5" cx="1289.914"/></g><g stroke-miterlimit="10" fill="none" stroke="#005d53" stroke-width="4"><path d="M1290.38 539.397l-11.76 13.465h-113.38"/><ellipse ry="6.427" rx="6.586" cy="534.5" cx="1295.085"/></g><g stroke-miterlimit="10" fill="none" stroke="#009686" stroke-width="4"><path d="M97.549 618.135l12.119-15.177H226.5"/><ellipse ry="7.243" rx="6.787" cy="623.653" cx="92.701"/></g><g transform="translate(-38 -60)" stroke-miterlimit="10" fill="none" stroke="#005d53" stroke-width="4"><path d="M376.365 88.803l38.534 30.424v125.209"/><ellipse ry="6.587" rx="6.427" cy="84.098" cx="371.468"/></g><g transform="translate(-16 -98)" stroke-miterlimit="10" fill="none" stroke="#42b2a6" stroke-width="4"><path d="M793.972 178.547l-31.652 31.652v125.052"/><circle r="7.265" cy="173.358" cx="798.123"/></g><g transform="translate(-16 -98)" stroke-miterlimit="10" fill="none" stroke="#42b2a6" stroke-width="4"><path d="M788.437 202.416l-15.221 12.972V340.44"/><circle r="7.265" cy="197.227" cx="793.972"/></g><g transform="translate(30 -118)" stroke-miterlimit="10" fill="none" stroke="#005d53" stroke-width="4"><path d="M894.362 178.547l30.887 31.652v125.052"/><ellipse ry="7.265" rx="7.089" cy="173.358" cx="890.31"/></g><g transform="translate(30 -118)" stroke-miterlimit="10" fill="none" stroke="#009686" stroke-width="4"><path d="M899.763 202.416l14.851 12.972V340.44"/><ellipse ry="7.265" rx="7.09" cy="197.227" cx="894.362"/></g><g stroke-miterlimit="10" fill="none" stroke="#005d53" stroke-width="4"><path d="M939.114 730.122l15.22-12.973V592.098"/><circle r="7.265" cy="735.311" cx="933.578"/></g><g transform="translate(-32 50)" stroke-miterlimit="10" fill="none" stroke="#009686" stroke-width="4"><path d="M1098.91 689.755l15.221-12.974V551.73"/><circle r="7.265" cy="694.943" cx="1093.375"/></g><g transform="matrix(-1 0 0 1 459.962 28)" stroke-miterlimit="10" fill="none" stroke="#009686" stroke-width="4"><path d="M214.771 711.312l15.22-12.974V573.287"/><circle r="7.265" cy="716.5" cx="209.236"/></g><g transform="translate(-22)" stroke-miterlimit="10" fill="none" stroke="#005d53" stroke-width="4"><path d="M823.637 739.462l-14.854-12.973V601.438"/><ellipse ry="7.265" rx="7.09" cy="744.651" cx="829.037"/></g><g fill="none"><g stroke-miterlimit="10" stroke="#005d53" stroke-width="4" transform="translate(48 16)"><path d="M558.342 736.368l15.22-12.972V598.344"/><circle r="7.265" cy="741.558" cx="552.807"/></g><g stroke="#231f20" stroke-width="3" transform="translate(48 16)"><path d="M558.342 736.368l15.22-12.972V598.344"/><circle r="7.265" cy="741.558" cx="552.807"/></g></g><g stroke-miterlimit="10" fill="none" stroke="#009686" stroke-width="4"><path d="M758.178 735.312l15.221-12.974V597.287"/><circle r="7.265" cy="740.5" cx="752.643"/></g><g transform="matrix(-1 0 0 1 413.501 -300.402)" stroke-miterlimit="10" fill="none" stroke="#009686" stroke-width="4"><path d="M660.77 725.312l15.22-12.974V587.287"/><circle r="7.265" cy="730.5" cx="655.235"/></g><g transform="translate(-938.459 -272.402)" stroke-miterlimit="10" fill="none" stroke="#009686" stroke-width="4"><path d="M719.259 703.265l-30.887-31.652V546.561"/><ellipse ry="7.265" rx="7.089" cy="708.454" cx="723.311"/></g><g transform="translate(-938.459 -272.402)" stroke-miterlimit="10" fill="none" stroke="#005d53" stroke-width="4"><path d="M713.858 679.396l-14.853-12.972V541.371"/><ellipse ry="7.264" rx="7.089" cy="684.584" cx="719.259"/></g><g transform="translate(-26)" stroke-miterlimit="10" fill="none" stroke="#20a294" stroke-width="4"><path d="M1306.42 167.9l-12.972 14.854h-125.051"/><ellipse ry="7.089" rx="7.265" cy="162.5" cx="1311.609"/></g><g transform="translate(28 -14)" stroke-miterlimit="10" fill="none" stroke="#009686" stroke-width="4"><path d="M1302.269 449.988l-12.973-15.22h-125.051"/><circle r="7.265" cy="455.523" cx="1307.457"/></g><g stroke-miterlimit="10" fill="none" stroke="#005d53" stroke-width="4"><path d="M1319.91 552.31l-12.971 14.852h-125.053"/><ellipse ry="7.089" rx="7.263" cy="546.908" cx="1325.1"/></g><g transform="translate(34)" stroke-miterlimit="10" fill="none" stroke="#005d53" stroke-width="4"><path d="M65.669 409.314l11.762 13.801H190.81"/><circle r="6.587" cy="404.297" cx="60.965"/></g><g stroke-miterlimit="10" fill="none" stroke="#005d53" stroke-width="4"><path d="M64.694 539.853l28.696-28.004h113.38"/><ellipse ry="6.428" rx="6.587" cy="543.527" cx="59.989"/></g><g stroke-miterlimit="10" fill="none" stroke="#009686" stroke-width="4"><path d="M86.334 534.956l11.761-13.465h113.38"/><ellipse ry="6.426" rx="6.586" cy="539.853" cx="81.629"/></g><g stroke-miterlimit="10" fill="none" stroke="#009686" stroke-width="4"><path d="M93.203 349.176l11.761-13.466h113.381"/><ellipse ry="6.428" rx="6.585" cy="354.072" cx="88.5"/></g><g transform="translate(-23.254 -187.692)" stroke-miterlimit="10" fill="none" stroke="#009686" stroke-width="4"><path d="M108.615 469.71l28.696-28.005H250.69"/><ellipse ry="6.427" rx="6.584" cy="473.382" cx="103.909"/></g><g transform="translate(-23.254 -187.692)" stroke-miterlimit="10" fill="none" stroke="#005d53" stroke-width="4"><path d="M130.255 464.813l11.76-13.465h113.38"/><ellipse ry="6.427" rx="6.586" cy="469.709" cx="125.55"/></g><g transform="translate(-6.644 -165.252)" stroke-miterlimit="10" fill="none" stroke="#009686" stroke-width="4"><path d="M113.196 378.222l12.972 15.22h125.051"/><circle r="7.265" cy="372.687" cx="108.007"/></g><g stroke-miterlimit="10" fill="none" stroke="#009686" stroke-width="4"><path d="M71.687 339.302l31.649-30.887h125.053"/><ellipse ry="7.089" rx="7.265" cy="343.354" cx="66.497"/></g><g transform="translate(470.06 99.66)" stroke-miterlimit="10" fill="none" stroke="#005d53" stroke-width="4"><path d="M95.554 275.9l12.972-14.852h125.052"/><ellipse ry="7.089" rx="7.263" cy="281.302" cx="90.365"/></g><g transform="translate(-1124.49 38.203)" stroke-miterlimit="10" fill="none" stroke="#009686" stroke-width="4"><path d="M290.223 626.862l12.973-14.853h125.05"/><ellipse ry="7.088" rx="7.265" cy="632.263" cx="285.034"/></g><g transform="translate(-6 -2)" stroke-miterlimit="10" fill="none" stroke="#005d53" stroke-width="4"><path d="M545.951 101.787l-15.22 12.973v125.052"/><circle r="7.265" cy="96.599" cx="551.487"/></g><g transform="translate(0 -66)" stroke-miterlimit="10" fill="none" stroke="#009686" stroke-width="4"><path d="M453.073 128.645l30.888 31.651v125.053"/><ellipse ry="7.265" rx="7.089" cy="123.455" cx="449.023"/></g><g transform="translate(-2 -66)" stroke-miterlimit="10" fill="none" stroke="#009686" stroke-width="4"><path d="M458.475 152.513l14.852 12.972v125.053"/><ellipse ry="7.264" rx="7.089" cy="147.325" cx="453.073"/></g><g transform="translate(6 -4)" stroke-miterlimit="10" fill="none" stroke="#005d53" stroke-width="4"><path d="M661.428 92.447l14.853 12.973v125.051"/><ellipse ry="7.265" rx="7.09" cy="87.258" cx="656.028"/></g><g transform="translate(0 -44)" stroke-miterlimit="10" fill="none" stroke="#009686" stroke-width="4"><path d="M726.887 96.598l-15.221 12.973v125.051"/><circle r="7.265" cy="91.409" cx="732.422"/></g><g transform="translate(0 -44)" stroke-miterlimit="10" fill="none" stroke="#005d53" stroke-width="4"><path d="M963.965 81.333l14.854 12.973v125.05"/><ellipse ry="7.265" rx="7.09" cy="76.144" cx="958.565"/></g><g transform="translate(0 -44)" stroke-miterlimit="10" fill="none" stroke="#005d53" stroke-width="4"><path d="M340.99 95.688l14.853 12.973v125.053"/><ellipse ry="7.264" rx="7.089" cy="90.5" cx="335.589"/></g><g transform="translate(-204.302 -16.61)" stroke-miterlimit="10" fill="none" stroke="#009686" stroke-width="4"><path d="M225.794 458.79l49.295 44.277h157.309"/><circle r="7.265" cy="453.255" cx="220.605"/></g><g transform="translate(-168.743 -166.574)" fill="none" fill-opacity="0" stroke="#005d53" stroke-opacity=".667" stroke-miterlimit="10" stroke-width="4"><path d="M290.05 364.244l12.973 15.22h125.05"/><circle r="7.265" cy="358.709" cx="284.861"/></g><g transform="rotate(-90 623.193 376.718)" stroke-miterlimit="10" fill="none" stroke="#005d53" stroke-width="4"><path d="M296.365 443.526l12.971-14.852h105.419"/><ellipse ry="7.088" rx="7.264" cy="448.927" cx="291.176"/></g><g stroke-miterlimit="10" fill="none" stroke="#005d53" stroke-width="4"><path d="M1343.778 202.468l-31.65 30.887h-125.053"/><ellipse ry="7.089" rx="7.265" cy="198.417" cx="1348.967"/></g><g stroke-miterlimit="10" fill="none" stroke="#005d53" stroke-width="4"><path d="M1319.91 207.869l-12.971 14.852h-125.053"/><ellipse ry="7.089" rx="7.263" cy="202.468" cx="1325.1"/></g><g stroke-miterlimit="10" fill="none" stroke="#009686" stroke-width="4"><path d="M1164.905 713.311l-14.853-12.973V575.287"/><ellipse ry="7.265" rx="7.089" cy="718.5" cx="1170.306"/></g><g transform="translate(0 -44)" stroke-miterlimit="10" fill="none" stroke="#42b2a6" stroke-width="4"><path d="M273.883 278.836l12.972-14.853h125.05"/><ellipse ry="7.089" rx="7.265" cy="284.238" cx="268.694"/></g><g transform="translate(0 -44)" stroke-miterlimit="10" fill="none" stroke="#005d53" stroke-width="4"><path d="M276.812 79.689l42.502 33.557v138.099"/><ellipse ry="7.265" rx="7.089" cy="74.5" cx="271.411"/></g><g transform="translate(0 -44)" stroke-miterlimit="10" fill="none" stroke="#009686" stroke-width="4"><path d="M244.041 330.063l31.652-30.888h125.051"/><ellipse ry="7.089" rx="7.264" cy="334.114" cx="238.852"/></g><g transform="translate(0 -44)" stroke-miterlimit="10" fill="none" stroke="#20a294" stroke-width="4"><path d="M267.909 324.661l12.973-14.852h125.051"/><ellipse ry="7.089" rx="7.264" cy="330.062" cx="262.721"/></g><g transform="rotate(-90 618.278 390.905)" stroke-miterlimit="10" fill="none" stroke="#005d53" stroke-width="4"><path d="M296.365 443.526l12.971-14.852h105.419"/><ellipse ry="7.088" rx="7.264" cy="448.927" cx="291.176"/></g><g transform="translate(60.88 -105.966)" stroke-miterlimit="10" fill="none" stroke="#009686" stroke-width="4"><path d="M113.196 378.222l12.972 15.22h125.051"/><circle r="7.265" cy="372.687" cx="108.007"/></g><g transform="matrix(-1 0 0 1 1610.796 -3.404)" stroke-miterlimit="10" fill="none" stroke="#009686" stroke-width="4"><path d="M225.794 458.79l49.295 44.277h157.309"/><circle r="7.265" cy="453.255" cx="220.605"/></g></svg>