<?xml version="1.0" encoding="UTF-8" standalone="no"?>
<svg
   xmlns:dc="http://purl.org/dc/elements/1.1/"
   xmlns:cc="http://creativecommons.org/ns#"
   xmlns:rdf="http://www.w3.org/1999/02/22-rdf-syntax-ns#"
   xmlns:svg="http://www.w3.org/2000/svg"
   xmlns="http://www.w3.org/2000/svg"
   xmlns:sodipodi="http://sodipodi.sourceforge.net/DTD/sodipodi-0.dtd"
   xmlns:inkscape="http://www.inkscape.org/namespaces/inkscape"
   version="1.1"
   preserveAspectRatio="none"
   x="0px"
   y="0px"
   width="1857.5143"
   height="2517.3027"
   viewBox="0 0 1857.5143 2517.3027"
   id="svg18"
   sodipodi:docname="vectorart260002.svg"
   inkscape:version="0.92.3 (2405546, 2018-03-11)">
  <metadata
     id="metadata22">
    <rdf:RDF>
      <cc:Work
         rdf:about="">
        <dc:format>image/svg+xml</dc:format>
        <dc:type
           rdf:resource="http://purl.org/dc/dcmitype/StillImage" />
      </cc:Work>
    </rdf:RDF>
  </metadata>
  <sodipodi:namedview
     pagecolor="#ffffff"
     bordercolor="#666666"
     borderopacity="1"
     objecttolerance="10"
     gridtolerance="10"
     guidetolerance="10"
     inkscape:pageopacity="0"
     inkscape:pageshadow="2"
     inkscape:window-width="2493"
     inkscape:window-height="1025"
     id="namedview20"
     showgrid="false"
     inkscape:zoom="0.078666667"
     inkscape:cx="851.01423"
     inkscape:cy="1185.9028"
     inkscape:window-x="1987"
     inkscape:window-y="27"
     inkscape:window-maximized="1"
     inkscape:current-layer="svg18" />
  <defs
     id="defs2" />
  <g
     id="Layer_2"
     transform="translate(-398.98577,-168.6)">
    <g
       id="g14">
      <g
         id="g12">
        <g
           id="g10">
          <path
             d="m 1989.6,655.35 q -11.4,-20.95 -27.8,-35.45 -18.05,-15.9 -38.95,-21.05 -5.7367,-1.16602 -10.1,-2.2 -4.2391,-10.69062 -12.35,-20.25 -15.35,-18.2 -37.05,-23.55 14.75,-0.2 28,7.85 13.25,8.05 19.9,21.3 -2.95,-14.05 -11.85,-25.9 -8.9,-11.85 -21.65,-18.5 17.4,6.6 32.2,18.15 14.95,11.7 25.4,27 -2.8,-26.35 -23.15,-48 -19,-20.2 -46.35,-29.65 -13.55,-4.75 -32.7,-8 -22.4,-3.25 -33.6,-4.9 -20.05,-2.95 -32.9,-6.45 -17.4,-4.8 -30.55,-12.65 21.8,8.4 45.6,7.8 23.9,-0.6 45.15,-10.05 -26.55,3.7 -52.9,-4.45 -26.45,-8.15 -46.2,-26.15 11.8,2.7 24.15,2 12.3,-0.75 23.85,-4.75 7.3086,-2.62734 11.85,-7.9 -13.6371,1.76387 -28.7,-2.2 -17.85,-4.75 -34.55,-16.55 -12.9,-9.1 -28.85,-25 -17.75,-18.4 -26.9,-27.35 -55,-54 -128.6,-83.1 -61.5201,-24.34023 -125.55,-27.15 0.593,0.3875 1.15,0.75 -1.5389,-0.4332 -3.1,-0.8 -11.5254,-0.45625 -23.15,-0.2 -16.6207,0.37207 -29.2,2.5 26.6859,-8.62715 52.35,-2.3 1.0041,0.0375 1.95,0.05 -23.868,-15.23145 -52.4,-20.85 -29.2,-5.75 -57.7,-0.3 21.6,-6.65 44.6,-5.55 23.05,1.1 43.9,9.8 -17.3,-11.5 -37.45,-17.95 -20.05,-6.4 -40.9,-7.15 -18.15,-0.75 -32.4,4.8 -16.8,6.5 -23,20.2 1.6,-15.15 -5.9,-29.4 -7.55,-14.25 -20.95,-21.5 10.5,10.1 11.7,25.9 1.2,15.7 -7.6,27.35 2.45,-14.15 -1.95,-28.35 -4.35,-14.2 -14.3,-24.5 -7.1766,-7.39199 -16.45,-11.95 -0.1979,-0.10234 -0.4,-0.2 -21.2414,0.13633 -42.1,7.6 -20.5,7.3 -38.15,20.75 -17.65,13.4 -30.2,31.2 -12.9,18.35 -18.7,39.1 9.1,-21.5 26.9,-37.5 15.7002,-14.15664 34.9,-21.1 -17.7,7.1 -31,22.15 -15.25,17.25 -19.3,38.8 6.35,-15.15 19,-26.6 12.65,-11.35 28.4,-16.25 4.2,15.5 -4.55,31.8 -8.1,15.1 -23.35,24.3 -12.65,7.55 -31.05,11.95 -8.7,2.1 -33.2,5.95 Q 853.9,329.85 758.6,425.6 770.05,415 784.2,408 q 14.2,-7.05 29.55,-9.75 9.25,-1.85 13,2.35 3.95,4.6 -0.7,10.9 -3.95,5.3 -11.05,8.75 -52.55,25.1 -94.3,57.8 -45.75,35.85 -76.35,79.2 -32.75,46.7 -46.1,100.25 -7.55605,30.22422 -8.05,59.4 -0.53242,-0.0355 -1.1,-0.05 -5.8,-0.1 -12.85,5.25 -10.85,8.15 -17.65,21.35 -6.35,12.3 -8.25,26.9 5.25,-10.25 8.9,-17.6 1.7,-3.35 3.2,-5.15 2.2,-2.55 4.8,-3 2.3,-0.35 4.6,1.05 2.1,1.25 3.5,3.45 2.9,4.75 1.6,11.5 -1,4.95 -4.45,11.65 -0.86152,1.56133 -1.6,2.95 -39.88652,27.62129 -68.9,68.5 -33.5,47.15 -45.5,102.15 8.05,-22.4 22.05,-42.05 14,-19.7 32.45,-34.55 -21.85,35.15 -36,74.4 -14.1,39.3 -19.65,80.35 3.85,-17.25 12.55,-32.95 8.65,-15.7 21.2,-28.2 -16.6,37 -24.3,56.5 -12.55,31.65 -19.3,58.15 -6.65,25.35 -9.5,52.1 -2.9,26.65 -2.15,56.95 0.6,25.65 4,56.8 2,18.4 6.15,55.25 0.76875,9.1967 1.1,17.7 -2.41543,16.6895 -8.6,29.45 -3.9,8.15 -15.3,24.1 -10.9,15.3 -14.95,24.4 -5.55898,12.5611 -6.55,27.15 8.37305,30.8779 13.4,58.65 0.87637,4.7945 1.65,9.5 5.50645,33.1814 6.6,63.8 0.65,17 0.1,38.2 -0.35,12.7 -1.6,38.05 l -4.1,82.65 q -1.15,25.45 -2.2,40.7 -1.5,22.45 -3.7,40.65 -1.9,15.9 -6.75,47.6 -3.9,28.3 -4.1,47.8 -0.62148,57.4709 25.9,123.6 2.7,8.2209 5.7,16.65 10.55,29.5 35.25,87.6 l 134.75,315.9 q 19.35,45.35 30.2,67.9 17.95,37.15 36.3,64.6 22.1,32.75 48.05,56.65 28.85,26.55 61.2,40.85 1.1084,0.4893 2.2,0.95 24.07988,7.6779 50.25,12.5 26.92793,4.9529 55.8,6.9 48.28281,5.0506 108.5,1 77.55,-5.05 150.2,-21.1 36.8533,-8.1141 72,-19 49.1193,-19.232 99.75,-43.2 77.95,-36.9 163.95,-87.2 36.1,-21.2 57.25,-35.75 37,-25.55 72.5,-59.45 6.3195,-6.0246 12.6,-12.35 21.008,-22.4729 36.25,-41.9 44.15,-56.25 62.65,-112.15 3.6354,-10.8363 7.25,-24.85 h 1.1 q 4.5301,-18.0652 11.9,-53.45 2.0256,-9.7965 3.85,-18.3 5.0576,-23.6115 8.55,-37.25 7.9,-30.55 17.6,-53.9 4.2631,-10.3453 8.9,-18.8 3.9461,-7.1197 8.15,-12.9 5.2281,-7.2057 11.05,-12.7 3.4838,-1.3865 7.1,-2.7 13.8,-5.05 39.3,-12 28.2,-7.7 39.6,-11.55 21.8,-7.25 37.5,-16.25 28.5693,-16.3578 53.9,-47.65 5.0598,-4.8824 9.35,-9.7 7.15,-7.95 14.6,-18.35 5.55,-7.7 13.05,-19.4 46.1,-72.5 77.7,-153.1 31.6,-80.55 47.15,-165.15 3.85,-20.65 5.3,-35.85 1.6623,-17.0609 0.95,-31.9 4.2955,3.8436 7.75,6.6 15.1,12.1 29.5,18 18.45,7.65 41,7.6 12.9422,0 26.7,-2.5 -9.3996,-0.5727 -21.55,-6.35 -24.2,-11.2 -45.65,-29.35 8.9,6.8 16.1,10.5 9.25,4.8 17.9,5.75 15.4,1.75 32.5,-7.8 0.7293,-0.408 1.45,-0.85 -14.8578,-3.5801 -28.8,-14 -22.85,-17.1 -32,-43.6 -8.55,-24.65 -4.75,-53.55 3.5,-26.3 16.5,-52.1 8.15,34.25 2.85,68.65 28.35,-65.4 2.65,-97.9 17.6,17.15 24.9,41.8 7.3,24.6 1.85,48.6 9.3,-13.5 11.2,-31.2 1.8,-16.75 -3.45,-33.3 -4.95,-15.35 -15.4,-29.65 -9.55,-13 -23.1,-24.35 25.2,14.5 54.25,17 -14.65,-8.85 -25.25,-24.75 -9.55,-14.4 -14.65,-32.75 -4.15,-15.3 -5.7,-35.25 -0.6643,-8.6363 -1.05,-24.1 11.7885,11.525 20.4,27.2 7.75,14.4 13,32.45 4.35,14.85 7.6,34.3 5.9,-31.55 -2.2,-63.6 -8.15,-32.05 -28.4,-57 -15.2,-18.65 -43.25,-39.2 -32.4,-22.35 -47.9,-34.3 -26.35,-20.45 -41.5,-42.25 -14.476,-20.9053 -17.95,-42.25 2.8594,-6.47949 7.1,-8.15 3.05,-1.2 6.85,-0.2 3.25,0.9 6.4,3.2 8.8,6.45 12.25,17.55 3.45,11 0,21.35 6.85,-16.15 1.95,-34.25 -4.95,-18.15 -19.1,-28.65 20.6,11.9 32.65,33.75 12.05,21.8 11.1,45.5 5.55,-22.4 -0.2,-45.7 -5.8,-23.35 -21.15,-40.65 -7.1,-8.05 -20.2,-18.5 -18.3,-14.6 -21.3,-17.25 -25.4,-22.6 -27,-46 -0.45,-7.25 1.45,-16.1 1.05,-5.15 4.35,-15.9 3.1,-10.35 4.2,-15.85 1.75,-8.8 1.1,-16.05 -0.5,-5.3 -2.55,-12.25 -2.6,-8.05 -3.85,-12.05 -1.093,-3.40566 -1.85,-6.55 -0.775,12.64297 -5.85,26.65 -5.75,15.85 -21,41.6 10.25,-22.2 9.25,-52.65 -0.7,-20.5 -7.75,-54.6 -5.7,-27.9 -10.35,-43.95 -6.95,-23.95 -16.55,-41.7 M 1316,315.65 q 7.7521,-1.6377 15.5,-2.85 -25.418,12.69141 -49.1,29.7 -39.3,28.2 -70.5,65.95 -31.25,37.8 -51.55,81.65 -20.75,44.85 -28.25,92.25 -1.95,-48.55 9.25,-96.45 11.15,-47.9 34.4,-90.55 -55.9,61.9 -98.25,134.5 19.75,-81.55 56.75,-149.05 27.3379,-49.8375 62.6,-89.1 -28.9523,45.91348 -49.1,96.3 9.85,-21.05 29.6,-40.2 15.8,-15.25 40,-31.05 54.15,-35.2 115.5,-55.75 -44.1,17.3 -80.65,49.1 -36.5,31.75 -59.85,73.15 16.25,-22.1 48.4,-39.75 35.25,-19.45 75.25,-27.85 m 102.2,-10.4 q 2.8258,-0.78477 5.6,-1.45 -5.1941,2.50469 -10.35,5.35 -45.3,25.05 -70.6,67.6 44.6,-31.8 98.4,-46.7 53.75,-14.85 108.35,-10.55 -54.4,6.95 -105.35,29.6 -50.85,22.65 -92.65,58.4 28.15,-14.85 66.4,-25.75 23.45,-6.7 69.75,-16.5 38.6,-8.25 61.2,-8.6 25.9193,-0.37891 45.45,7.75 -45.0225,1.55059 -89.55,11.65 -59.3,13.5 -112.75,41.05 -53.45,27.7 -98.7,68.25 -45.25,40.6 -78.55,90.75 -8.95,13.55 -23.1,37.4 20.7,-55.95 52.85,-106.7 32.15,-50.7 73.9,-93.3 -51.55,36.85 -76.25,60.15 -39.15,37 -56.25,76.35 22.35,-68.75 68.8,-126.4 46.3,-57.55 108.8,-94.25 29.05,-17 54.6,-24.1 m -117.7,238.9 q 18.9,-21.7 50,-43.65 63.7,-45.15 133.1,-67.05 74.95,-23.65 146.4,-16.6 -91.75,8.25 -178.4,60.4 -80.5,48.4 -143.35,126.1 18,-42.5 50.95,-76.3 33,-33.85 75.05,-52.95 -56.55,14.15 -104.8,49.25 -21.3125,15.5041 -39.25,33.8 4.6906,-6.5623 10.3,-13 m 1.55,97.95 q 3.868,-5.3248 8.4,-10.65 10.9,-12.8 28.15,-28.1 69.2,-61.35 156.1,-97.3 86.95,-36.05 179.3,-41.55 -60.7,9.75 -118.55,31.9 -57.75,22.15 -109.45,55.45 56.35,-21.45 100.15,-33.1 55.05,-14.6 103.6,-17.65 55.25,-3.35 105.05,8.3 7.7887,1.81406 15.3,3.95 -23.2607,-0.52188 -46.95,1.5 -78.5,6.7 -147.8,40.4 26.55,-11.6 62.2,-13.15 24.25,-1 64.7,3 53.8,5.4 86,15.15 26.1127,7.87344 46.15,20.2 -49.8723,-13.16289 -104.65,-15.45 -67.35,-2.8 -137.65,11 -64.6,12.7 -132.05,39.45 -60.4,23.95 -124.7,59.8 44.35,-40.85 97.35,-70.75 52.9,-29.85 110.8,-46.75 -44.9,2.5 -98.2,20.5 -32.7,11 -94.05,38.1 -25.25,11.2 -37.65,18.4 -6.1369,3.57871 -11.55,7.35 m 138.85,138.3 q 8.391,-2.44062 14.05,-3.9 14.85,-3.8 27.15,-5.15 22.25,-2.35 49.9,2 16.65,2.65 49.25,10.65 -44.8,-17.6 -92.1,-27.85 -47.35,-10.2 -95.4,-12.65 22.8,-6.1 49.95,-6.45 22.7,-0.3 50.55,3.55 49.5,6.9 95.25,22.65 -32.1,-20 -67.9,-32.9 -35.9,-12.9 -73.35,-17.85 48.6,-3.15 90.35,0.45 47.6,4.1 88.25,17.15 49.45,15.95 104.45,50.7 24.5857,15.54531 64.6,45 -22.9607,-14.68203 -48.3,-26.3 -63.3,-29 -131.25,-34.25 62.3,27.9 117.2,69.75 54.75,41.75 98.3,94.5 -42.4,-48.95 -97.7,-84.35 -55.3,-35.4 -117.55,-53.4 59.55,27.65 111.35,69.05 19.8795,15.90742 38,33.35 -57.483,-41.67832 -125.2,-69.4 -97.2736,-39.79375 -199.85,-44.35 m 0.45,-83.7 q -34.8,4.15 -86.75,14.3 79.1,-31.3 144.1,-45.65 79.4,-17.5 149.15,-12.75 -84.65,-12.75 -170.4,0.95 -21.4834,3.42832 -42.4,8.4 24.6387,-8.12109 49.9,-14.55 52.75,-13.4 106.8,-19.05 40.5,-4.25 75.35,-3.1 39.85,1.25 74.5,9.6 54.9,13.35 109.8,47.7 40.4736,25.35586 82.6,63.3 -28.2104,-19.41191 -47.4,-31.4 -32,-20.05 -59.5,-33 Q 1758.95,649.3 1699,652 q 64.55,24.6 120.3,66.7 55.8,42.1 96.95,97.4 -65.7,-59.5 -132.2,-94 Q 1706.8,682 1631.1,677 q 71.9,34.9 140.65,75.85 28.25,16.75 43.15,29.6 8.2986,7.12402 14.7,14.6 -78.091,-43.22793 -135.05,-65.7 -87.95,-34.65 -165.8,-38.5 -39.8,-1.85 -87.4,3.85 m 330.55,446.75 q -4.8969,-4.1973 -8.3,-9.4 16.2361,12.3373 24.25,18.1 0.2055,0.045 0.4,0.1 6.2,1.85 15.55,2.25 5.25,0.25 15.8,0.6 34.3,2.35 61.85,26.5 27.6,24.15 34.4,57.9 -14.65,-25.75 -28.05,-40.4 -18.25,-19.9 -39.3,-26.1 -5.5,-1.6 -16.8,-3.5 -11.35,-1.85 -16.85,-3.5 -12.8,-3.8 -26.55,-13.55 -0.2164,-0.1531 -0.45,-0.3 -8.7588,-2.585 -15.95,-8.7 m 46.6,208 q -1.5357,-4.6273 -2.65,-9.25 4.6518,4.6881 9.65,9.1 17.85,15.75 38.85,26.45 10.3,5.2 18.75,7.45 10.6,2.85 19.75,1.55 -15.65,4.6 -32.15,1 -16.55,-3.6 -28.85,-14.25 13.05,25.4 38.9,40.5 25.85,15.15 54.35,14.1 -21.15,7.2 -45.75,1.6 -22.5,-5.1 -42.6,-19.45 -17.15,-12.3 -33.8,-32.05 -11.45,-13.55 -28.1,-37.7 25.7,29.05 57.65,50.1 -16.4,-16.4 -24,-39.15 m -802.65,-970.6 q 8.8887,-17.61738 19.95,-32.75 -4.5984,10.64414 -8.4,21.7 -9.75,28.35 -13.8,58.05 11.7,-37.45 45.2,-73.55 21.3,-23.05 66.45,-59.05 -61.95,82.2 -84,161.25 -12.8,45.6 -12.45,90.55 0.2066,24.65762 4.35,47.7 -7.0467,-24.3709 -10.15,-41.6 -9.1,-50.7 2.25,-90.15 -18.85,27.35 -28.35,59.75 -9.45,32.35 -8.4,65.6 -4.35,-37.75 -3.7,-70.7 0.7,-37.35 7.8,-70.05 7.7,-35.95 23.25,-66.75 M 913.6,409.7 q 1.12754,14.12227 3.75,28.4 4.15,-20.35 13.85,-38.9 9.7,-18.55 24.05,-33.35 -21.5,73.95 -10.15,152.5 7.30742,50.76465 27.2,95.85 -4.92129,-6.6957 -9.55,-13.7 Q 942,569 929,534 q -7.2,-19.25 -9.9,-35.05 -3.25,-19.35 -0.25,-35.85 -7.5,14.95 -9.85,31.7 -1.93105,13.80449 -0.2,27.35 -5.02207,-32.45371 -2.5,-65.7 1.78027,-23.83535 7.3,-46.75 m -94.15,99.05 q 5.55,31.5 20.9,59 -11.05,-26.8 -10.25,-56.6 0.75,-29.75 13.15,-56.05 -6.75,26.45 -4.85,54.15 1.9,27.7 12.2,53 -4.7,-28.05 -0.75,-56.65 3.9,-28.55 15.9,-54.25 -9.45,64.2 2.9,121.25 13.85,63.7 52.7,105.75 -31.15,-24.25 -48,-44.4 -23.1,-27.6 -28.6,-56.45 -0.65,20.55 4.75,40.8 5.4,20.1 16.25,37.7 -33,-41.25 -44.4,-94.7 -7.61543,-35.73887 -4.2,-70.4 0.73945,8.9127 2.3,17.85 m -96.3,50.05 q -0.15,-18 4.45,-35.3 -0.75,24.05 7.5,47.25 8.25,23.15 24,41.35 -13.15,-31.35 -15.55,-65.8 -2.4,-34.5 6.3,-67.3 0.6,31 10.75,61.5 9.85,29.75 27.8,56.05 17.95,26.3 42.05,46.3 24.7,20.55 53.4,32.4 -27.85,-1.5 -53.65,-13.85 -25.8,-12.3 -44.45,-33.05 13.35,24.3 32.45,45 18.95,20.6 42.15,36 -33.95,-16.2 -50.8,-25.9 Q 782.1,667.7 763.5,650.5 750.85332,638.90488 741.4,625.85 732.5375,609.63652 728.1,594 723.25,576.9 723.15,558.8 M 433.6,1455.6 q -6.85,-29.35 1.15,-49 4.19219,-10.5467 12.7,-17.75 18.56367,-2.8227 40.6,0.85 21.1,3.45 53.2,14.9 52.5,18.85 103,41.65 24.55,11.05 39.65,19.7 21.1,12.05 35.85,25.55 17.25,15.6 27.4,34.7 2.3623,4.4561 4.25,8.9 -1.70117,0.5553 -3.55,0.65 -5.05,0.15 -10.9,-2.35 -3.4,-1.45 -10.1,-5.4 -0.10488,-0.062 -0.2,-0.15 -63.62617,-37.4574 -140.1,-41.95 -33.50039,-1.9488 -65.35,2.65 -34.17871,4.983 -66.45,17.5 -14.61406,-23.4715 -21.15,-50.45 m 110.25,78.7 q -6.2,-0.9 -11.1,-2.7 -5.75,-2 -10.05,-5.35 -4.8,-3.75 -7.2,-8.65 0.8,5.9 5,10.5 4.15,4.6 9.85,6 -8.6,-0.65 -16.65,-4.15 -6.5457,-2.8459 -14.65,-10.55 17.44941,-15.5371 54.05,-17.15 12.05859,-0.5205 24.05,-0.05 37.49395,1.5926 74.25,13.15 41.17441,12.9756 75.85,36.75 -0.78613,2.2367 -2.4,4.4 -2.3,3.4 -4.6,4.25 -1.25,0.35 -2.75,0.35 -0.32773,0.023 -0.8,0.05 -18.85996,-15.7682 -42.1,-24.9 -24.1,-9.5 -49.5,-10.5 -1.93066,-0.048 -3.7,-0.1 -4.68047,0.5443 -7.7,0.7 -7.95,0.4 -14.1,-0.85 -7.35,-1.6 -12.95,-5.8 -6.15,-4.65 -8.3,-11.1 0.2,5.95 2.9,11.55 2.7,5.45 7.25,9.45 -8.25,0.2 -15.3,-5.05 -7.1,-5.2 -9.35,-13.2 -1.4,5.6 0.25,11.3 1.7,5.75 5.9,9.6 -8.55,1.5 -16.3,-3.85 -7.75,-5.4 -9.45,-13.9 -0.2,6.15 2.8,11.85 3,5.6 8.2,9 -7.3,-0.5 -11.4,-1.05 m 10.9,33.45 q -3.1,1.2 -5.45,3.65 -1.82402,1.943 -2.95,4.3 4.49453,-10.3643 14.25,-18.8 9,-7.9 21.65,-13.4 5.55,-2.4 9.7,-3.1 3.17168,-0.5381 5.9,-0.2 -1.85488,5.9936 -2.5,10.55 -1.4,9.65 2,19.2 1.82324,5.0941 4.75,9.35 -8.60273,0.1232 -14.55,0 -14.5,-0.35 -26.2,-1.95 -5.2,-0.7 -7.25,-2.85 -1.45,-1.55 -1.3,-3.75 0.15,-2.25 1.95,-3 m 94.7,-16.4 q 1.28633,-0.7 2.75,-1.05 2.3,-0.6 4.55,-0.2 1.8,0.25 2.75,0.9 1.5,1.3 1.5,3.6 0.2,2.4 -0.75,3.65 -0.85,1.3 -2.5,1.85 -1.6,0.55 -3.15,0.15 -3.15,-1 -4.75,-4 -0.85,-1.25 -0.85,-2.65 -0.1,-0.55 0.1,-1.2 0.26641,-0.666 0.35,-1.05 M 1338.5,650.1 q -16.95,9.6 -29.4,18.4 -15.15,10.75 -26.5,22.25 -12.65,12.95 -20.8,27.65 -8.5395,15.39043 -11.35,31.3 0.2926,-0.15742 0.55,-0.35 11.9184,-21.73086 31.9,-37.6 20.0936,-15.99688 44.1,-22.6 -8.5623,5.29766 -16.5,12.35 -20.55,18.45 -38.5,51.25 29.1,-14.8 69.75,-20.25 12.2986,-1.66934 30.3,-2.8 21.5934,-3.41191 43.45,-1.7 -24.7898,0.55996 -43.45,1.7 -13.7287,2.19453 -27.35,6.45 -35.1,10.95 -62.85,33.6 46.05,-15.35 95.8,-9.2 11.8131,1.46172 23.1,4.05 -4.5148,0.46602 -9.2,1.15 -19.5285,2.82891 -54,12.35 7.2482,-1.42012 15.9,-0.85 8.35,0.6 23.05,3.85 22.55,5.05 65.25,16.15 16.45,4.2 24.9,7.2 13.6,4.8 23.1,11.3 -60.55,-12.65 -122.15,-9.65 17.7,3.9 40.7,11.45 0.25,0.1 40.05,13.85 50,17.2 81.5,20.45 14.4,1.45 43.5,2.25 25.8,1.55 42.25,7.5 -13.95,-2.45 -32.2,-2.35 -8.35,0.05 -32.6,1.35 -20.4,1.05 -32.4,0.65 -17.7,-0.65 -31.8,-4.4 -7.4,-1.9 -16.35,-5.45 -5.5,-2.2 -16,-6.9 2.45,4.05 7.55,6.9 3.75,2 9.95,3.85 15.5,4.55 35.8,8.15 9.9,1.75 36.35,5.6 47.15,6.85 71.7,15.25 21.4748,7.37188 44.5,20.6 -12.6086,-4.02305 -25.7,-6.9 -40.55,-8.9 -81.4,-5.85 85.6,17.55 163.35,58.65 -21.6525,-4.90371 -43.55,-7.15 3.7191,0.69609 7.45,1.55 32,7.35 63.25,24.95 1.533,0.87148 3.05,1.75 9.5463,3.46523 21.7,8.75 22.8543,6.37578 42.35,20 -24.1285,-12.06426 -42.35,-20 -5.843,-1.62734 -11.95,-2.8 -6.7303,-1.25723 -13.75,-1.95 -38,-3.75 -71.7,10.9 35,4 68.75,15.25 19.1543,6.3848 37.3,14.9 13.9928,5.8695 26.85,14.1 -13.1344,-7.6527 -26.85,-14.1 -17.4207,-7.2918 -36.6,-10.9 -34.55,-6.5 -68.3,0.25 37.1,5.45 71.25,22.5 30.5301,15.2205 55.15,37.95 -19.8154,-17.2301 -50.4,-27.7 -22.3,-7.6 -65.5,-15.25 36.6,35.45 63.25,55.65 36.65,27.85 72.1,41.6 -41,2.25 -77.55,-21.65 -36.6,-23.95 -50.95,-62.5 15,49.6 48.4,90.85 13.6457,16.8576 29.3,31 -21.2715,-11.3133 -40.65,-27.35 -43.2,-35.7 -65.15,-85.1 17.4,55.6 53.05,103.3 35.5,47.55 83.95,80.2 -46.05,-23.35 -84.25,-59 -38.2,-35.7 -64.65,-80 17.6,51.25 51.1,95 33.5,43.7 78.4,74.1 -41.85,-22.75 -75.6,-57.25 -33.8,-34.45 -55.75,-76.75 14.45,56.95 50.3,105.3 35.85,48.35 86.2,78.7 -35.45,-17.65 -67.3,-41.3 -31.9,-23.65 -58.95,-52.45 24.85,37.65 66.35,76.05 21.1896,19.5402 62.45,52.55 -23.7879,-18.1385 -39.45,-27.3 -21.3207,-12.4916 -41.5,-18.2 29.5432,21.0564 55.2,47.7 31.9701,33.2029 55.1,72.25 5.9215,8.6914 9.6,17.2 -4.5961,-8.7381 -9.6,-17.2 -3.3471,-4.8965 -7.4,-9.85 -7.25,-8.9 -22.1,-23.8 -16.2,-16.2 -22.55,-23.55 -11.85,-13.7 -18.25,-26.45 15.1,36.4 38.25,68.7 23.1,32.35 52.65,58.4 -24,-10 -43.35,-28.25 -19.3,-18.25 -30.65,-41.6 18.85,42.75 31.15,63.85 19.9,34.05 43.85,54.4 -28.35,-12.85 -48.6,-37.9 -10.3959,-12.8285 -17.25,-27.1 2.0506,27.1787 10.45,53.8 12.15,38.35 35.75,70.05 -18.2,-8.8 -30.4,-25.95 -12.25,-17.15 -14.7,-37.3 -4.55,25.6 10.4,54.45 10.6,20.4 34.6,47.7 -15.2738,-6.7137 -26.8,-19 8.5918,22.4805 11.7,47.5 2.0182,16.3641 1.5,32.25 -37.273,115.7955 -53.3,236.6 6.7,-39.05 25.05,-86.6 8.5,-22.1 35.85,-83.75 23.25,-52.3 33.85,-84 11.7324,-35.0477 16.45,-66.55 10.1104,0.7965 20.8,-1.75 17.25,-4.1 31.15,-15.45 13,-10.65 22.05,-26.7 8.4,-14.85 12.45,-32.55 -7.55,14.55 -20.45,25.25 -13.05,10.8 -28.8,15.35 14.1,-9 25.2,-25.6 8.65,-12.85 16.8,-32.5 8.75,-22.8 13.5,-33.95 8.25,-19.4 17.25,-31.8 10.9,-15.15 27,-26.15 11.95,-8 21.75,-9.25 7.75,-1 19.75,1.5 25.7,5.95 40.85,18.65 12.15,10.35 20.45,27.5 6.5,13.55 11.3,33.1 4.25,17.45 5.15,29.75 0.75,10.8 -0.3,24.15 -0.6,8.2 -2.6,24 -2,15.6 -5.85,46.85 -2.55,20.5 -4.25,30 -2.7252,15.2668 -7.55,32.25 -12.8424,36.4898 -30.6,71.4 -13.05,25.7 -26,42.95 -16.3,21.8 -35.35,34.55 -9.65,5.95 -14.3,9.1 -8.1,5.45 -12.6,10.9 0.1,3.8 4.9,4.6 4.2,0.75 8.6,-1 15.75,-6.05 30.25,-15.6 -24.75,41.25 -53.1,79.1 -12.1,16.25 -21.6,27.1 -12.4,14.15 -24.65,24.15 -30.1,24.7 -69.25,33.7 -39.1,9.05 -76.9,0.05 7.8,-20.05 11.5,-41.35 2.1844,-12.6045 2.9,-25.3 -29.551,78.6 -45.4,132.15 -19.35,65.1 -30.85,98.7 -8.7316,25.467 -17.8,48.1 -7.5662,18.9979 -15.4,36 h 2.75 q -5.0137,13.2174 -9.95,24.45 -28.35,65 -75,119.85 -16.1629,18.9926 -33.9,36.05 -62.607,51.2709 -133.2,92.45 -80.8893,47.1488 -168.35,78.75 21.0219,-20.6525 37.55,-45.9 23.5,-35.9 35.05,-76.7 -13.8,33.45 -40.15,63.05 -24.15,27.1 -57.25,49.2 -28.75,19.2 -66,35.9 -28.95,13 -70.35,27.5 -26.35,9.15 -42.5,13.35 -23.05,6.05 -52.85,9.8 -1.1525,0.1441 -2.4,0.3 v -2 q -13.65117,2.0822 -27.65,3.3 -85.38027,7.417 -181.1,-16.35 -13.37441,-6.1723 -24.15,-14.3 -24.75,-18.65 -44.35,-54.25 -10.05,-18 -14.5,-33.65 -0.60703,-2.1355 -1.15,-4.25 1.6043,13.5438 4.55,26.95 3.62109,16.408 9.15,32.05 -6.56094,-6.2178 -12.95,-13.75 -10.6,-12.5 -23.75,-32.7 -5.14805,-7.8684 -10.25,-16.05 -47.99688,-76.8848 -90.45,-178.7 -29.55,-70.95 -76.05,-206.75 -0.75918,-2.2387 -1.5,-4.4 -8.73281,-25.4791 -14.45,-38.85 -10.05,-23.55 -22.15,-40.15 11.23398,4.7738 21.7,10.8 -15.08594,-19.7473 -27.35,-40.95 -20.85,-36.15 -32.35,-74.35 -12,-39.45 -13.45,-79.9 -1.45,-41.65 8.45,-80.45 0.3,-1.2 6.5,-23 3.9,-13.8 5.6,-23.15 3.2,-17.3 3.05,-40.05 -0.1,-10.15 -1.7,-40.5 -1.4,-25.3 -0.8,-40.3 0.71719,-17.4928 4,-32.15 5.6668,-2.9707 12.1,-3.1 -3.6,18.3 5.8,36.85 8.9,17.5 25.7,28.5 14.85,9.85 35.2,14.45 16.75,3.8 38.4,4.2 33.7,0.55 67,-6.45 33.2,-6.95 63.9,-21.05 -51.45,9.85 -77.8,12.55 -43.55,4.4 -77.95,-1.45 -12.7,-2.2 -22.2,-5.65 -11.55,-4.2 -19.8,-10.7 -9.3,-7.45 -14.05,-17.9 -5.05,-11.2 -2.95,-22 2.3,-11.4 12.55,-18.5 2.80098,-1.934 5.6,-3.1 -1.52734,3.3146 -2.55,7 -2.8,10.35 -0.75,20.5 1.7,-10.4 9.95,-18.05 8.3,-7.6 18.8,-8.45 -7.85,3.45 -13.1,10.75 -5.25,7.35 -6,15.85 7.45,-16.25 40.85,-12.75 44.25,4.6 68.85,5.6 6.40762,0.2684 12.6,0.35 30.73281,0.5707 56.2,-2.8 5.14863,-0.6818 13.8,-1.85 4.08125,-0.548 8.9,-1.2 12.95,-1.3 22.65,0.15 3.5,0.5 10.5,1.85 6.15,0.9 10.5,0.05 5.45,-1.1 9.1,-5.5 0.30312,-0.3709 0.55,-0.75 4.29277,19.0258 4.1,41.05 -0.2,23.4 -5.6,52.8 -0.76953,4.125 -4.75,22.8 0.60586,1.227 1.25,2.65 0.15937,0.3479 0.3,0.65 3.98652,-14.966 6.55,-26.2 11,-48.2 12.5,-87.9 1.8,-47.25 -9.85,-88.65 -8.70273,-30.7973 -24.2,-55.55 -13.60879,-26.659 -32.05,-50.05 8.6,12.5 13.3,27.25 4.65,14.65 4.95,29.9 -3.3,-18.3 -12.05,-34.95 -8.75,-16.65 -21.95,-29.7 9.75,11.95 15.45,26.5 5.7,14.55 6.55,29.9 -16.15,-38.55 -45,-68.9 15.4,20.15 26.35,43.15 -29,-29.3 -63.7,-51.95 -34.8,-22.7 -73.15,-37.3 -15.67813,-6.0639 -28.45,-8.15 -3.24785,-0.4873 -6.3,-0.75 -19.65,-1.7 -33.4,6.75 3.55,-6.35 10.2,-10.15 6.6,-3.8 13.8,-3.7 -13.4,-7.3 -29.5,-5.95 -12.06797,1.0119 -21.85,6.55 -0.67227,-48.6629 -0.15,-74.65 0.95,-49.8 6,-89.2 10.5,-81.3 42.35,-157.8 31.8,-76.55 82.05,-141.35 21.85,-28.1 42,-45.8 1.37695,-1.21094 2.75,-2.4 33.18164,-16.49414 71.35,-23.55 62.37559,-11.58047 121.2,5.3 0.15723,-0.0262 0.3,-0.05 -21.87949,-14.2998 -47.95,-19.95 -26.3,-5.7 -52.4,-1.65 41.7,-10.6 85.25,-9.6 43.55,1.05 84.75,13.6 -23.8,-18.65 -54,-26.15 -15.9916,-3.94492 -31.9,-4.3 -12.89062,0.76113 -28.1,2.2 14.02012,-2.51699 28.1,-2.2 25.71602,-1.51445 42.35,-0.35 38.95,2.7 65.3,19.15 -8.25703,-12.16836 -19.85,-22.15 30.20957,12.63262 55.6,33.3 -16.4,-26.75 -40.35,-47.8 -23.9,-20.95 -52.55,-33.85 29.45,6.2 60.65,25.3 22.45,13.75 53.75,39.7 -14.8,-31.55 -38.75,-57.5 -4.98047,-5.39551 -10.25,-10.45 16.59141,10.79844 33.45,26.45 15.35,14.25 36.15,37.75 -19.05,-38.3 -44.25,-73.6 -13.05,-18.2 -24.55,-28.25 -1.58437,-1.38457 -3.2,-2.65 -13.89766,-7.74883 -28.75,-13.75 14.80781,2.60254 28.75,13.75 20.77402,11.53633 39.45,26.95 31.3,25.8 52.95,59.3 -14.9,-34.8 -36.55,-66.35 -21.55,-31.4 -48.7,-58 31.71211,17.44609 58.15,42.5 3.49961,3.30879 6.9,6.75 29.15,29.5 48.45,65.6 -19.15,-42.5 -26,-65.95 -4.5467,-15.58262 -6.5,-30 3.4488,9.06758 7.55,18 19.05,41.6 49.95,74.35 -21.3,-46.25 -24.7,-98.2 -3.45,-51.95 11.55,-100.7 -5.9,36.15 -4.3,72.85 1.55,36.75 10.55,72.15 4.75,18.6 10.7,31.15 7.65,16.2 18.8,26.25 -14.6,-41.5 -16.65,-86.2 -2.05,-44.65 8.65,-87.45 -7.15,45.15 0.45,91 7.55,45.9 28.8,86.25 -16.6,-55.9 -14.65,-115.1 1.7174,-53.55254 18.35,-103.35 -8.3969,37.47031 -10.05,71.1 -1.95,40 5.5,76.3 7.7574,37.58984 25.05,68.35 0.5906,0.18203 1.15,0.35 -6.9455,-43.47109 -4.9,-74.3 2.8,-42 22.05,-70.7 -8.6,34.9 -6.2,71.35 2.4,36.35 15.45,70 -1.1,-26.25 -0.95,-39.05 0.2,-21.75 3.2,-38.8 3.6,-20.45 11.65,-37.3 5.5727,-11.61211 12.95,-20.85 -3.8416,10.2584 -6.35,18.5 -8.6,28.25 -8.5,53.7 0.15,29.25 11.9,51.95 0.95,-31.95 15.9,-61.45 15,-29.45 40.2,-49.05 -18.35,28.3 -27.5,61.35 -9.1,33 -7.85,66.75 11.25,-42 34.6,-79.45 7.848,-12.61406 16.75,-24.25 -11.6619,27.39863 -18.6,56.5 -1.2205,5.10059 -2.3,10.2 -4.8998,23.63848 -6.5,47.6 1.2922,-12.95176 10.05,-26 7.8,-11.55 22.1,-23.85 30.2,-26 67.15,-43 m 583.25,1266.5 q 0.4221,-2.1883 0.5,-4.35 0.25,-10.85 -7.9,-19.5 -8.1,-8.6 -19,-9 -7.15,-0.25 -12.25,3.25 -2.2877,1.6131 -4.55,4.7 -1.5197,2.3395 -2.8,4.9 -4.85,9.55 -5.4,19.9 -0.45,6.95 1.4,11.85 2.65,7.2 10,11.2 4.7998,2.5846 9.9,2.95 2.5197,0.1951 5.1,-0.15 7.45,-1.1 13.7,-6.3 6.1,-5.05 9.15,-12.3 1.4957,-3.6324 2.15,-7.15 m -12.15,-8.75 q 1.25,1.9 0.9,3.5 -0.25,1 -1.5,2.9 -0.4,0.95 -0.45,2.55 -0.15,2.4 -0.2,2.7 -0.25,2.1 -1.5,4.05 -1.2,1.85 -3.1,3.2 -3.5,2.25 -8.4,2.25 -3.4,0.1 -6.25,-1.1 -3.15,-1.35 -4.75,-3.9 -1.15,-1.8 -1.6,-4.45 -0.25,-1.8 -0.25,-4.95 0,-6.35 0.65,-10 0.5654,-3.4549 1.85,-6.15 0.8041,-0.7455 1.75,-1.2 2.25,-1.15 5.45,-0.6 2,0.35 5.65,1.7 3.55,1.5 4.35,1.95 2.45,1.25 3.9,2.7 1.5,1.35 3.5,4.85 m 93.95,-375.15 q 0.6717,-1.4771 1.4,-2.95 -29.9221,23.8279 -44.25,41.1 -0.7107,0.8535 -1.4,1.7 -7.2115,30.0707 -22.3,56.95 -3.45,6.05 -6.8,9.35 -4.5,4.45 -9.6,4.9 -6.45,0.55 -15.25,-6.95 -5.8,-4.95 -7.1,-5.9 -4.2,-3.05 -7.9,-4.05 22.85,47.25 17.15,102 -5.7,54.7 -37.75,96.25 -3.25,4.2 -11.8,14.4 -7.65,9.1 -11.7,14.5 -12.7,17.25 -15.4,32.5 13.45,1.85 25.6,-10.45 8.7,-8.85 17.4,-25.95 3.95,-7.95 6.95,-12.65 4.25,-6.7 9.05,-11.1 3.2,-2.85 9.55,-6.95 7.1,-4.55 9.7,-6.65 14.7,-11.7 20.85,-34 4.6,-16.5 4.9,-41.75 0.4637,-27.3592 -1.6,-54.65 8.7033,-17.5516 19.35,-34 3.8,-5.7 6.7,-8.6 4.2,-4.3 8.8,-5.65 9.7,-2.8 18.45,6.25 7.6,7.85 10.8,19.9 9.65,36 -4.1,73 -13.75,36.95 -44.5,57.85 17.75,-7.3 32.55,-20.9 14.3,-13.15 24.05,-30.5 9.7,-17.3 13.5,-36.4 3.9,-19.7 0.9,-38.7 -1.95,-12.45 -6.5,-22.3 -5.15,-11.25 -13.4,-18.45 -1.3,-1.15 -11.3,-8.3 -6.9,-4.95 -10.05,-9.45 -6,-8.35 -5,-20.45 0.95,-10.75 6.85,-21.15 3.8,-6.55 12.85,-17.9 6.627,-8.3822 10.35,-13.9 m 49.8,-82.2 q -9.5,1.1 -19.15,8.1 -6.6,4.75 -15.85,14.65 -15.8326,17.1549 -29.8,34.35 10.6918,-8.6381 22.8,-15.1 5.7,-3.05 10.05,-4.55 5.6,-1.9 10.6,-1.85 7.7,0 15.3,4.6 6.75,4.1 12.2,11.05 10.65,13.85 13.75,35 2.3,15.85 0.6,39 -2.9,38.4 -12.3,85.85 -3.4172,17.1791 -10,45.7 9.0232,-35.2449 13.45,-53.05 8,-32.2 11.1,-54.75 9,-64.7 -11.6,-109.9 14.65,5.05 24.6,17.8 9.95,12.75 11.25,28.1 1.2,-18.15 0.75,-28.1 -0.75,-15.55 -5.25,-27.15 -5.4,-13.65 -16.9,-22.2 -12.3,-9.15 -25.6,-7.55 M 854,2126.95 q -1.73438,-0.1803 -3.5,-0.4 -16.75,-2.05 -45,-10.75 -34.2,-10.45 -45.55,-12.95 -25.75,-5.6 -45.7,-2.85 -9.65,1.35 -22.5,5.35 -0.46543,0.1578 -0.95,0.3 -14.03027,4.7758 -21.1,7.1 -27.2,8.95 -44.6,6.85 -8.75,-1.55 -13.15,-2.1 -7.65,-1 -12.95,0.5 -6.65,1.85 -9.95,8.55 -1.40586,2.8736 -1.5,5.35 1.81172,4.3502 5.45,7.75 0.36016,0.3611 0.75,0.7 3.45,3 11,7.15 8,4.4 11.25,7 8.95,7 14.9,20.75 1.85,4.4 8.6,25.25 10.8,33.55 31.7,63.45 20.4,29.15 48.4,52 16.98691,13.8377 35.65,24.45 45.36055,15.0029 94.15,19.75 54.5,5.3 109.3,-2.45 54.8,-7.8 105.7,-28.1 21.2572,-8.4742 41.15,-18.9 22.3658,-9.4607 43.1,-23.55 41.5,-28.25 68.2,-69.3 14.8,-22.4 15.85,-23.8 9.8,-12.9 20.55,-18.55 3.65,-2 12.75,-5.35 8.4,-3.05 12.6,-5.65 1.5479,-0.9551 2.95,-2.05 0.5994,-1.309 1.05,-2.6 1.4768,-4.2627 1.5,-8.45 -0.2357,-3.0562 -0.7,-6.15 0.2391,1.008 0.4,2.05 0.3287,2.0379 0.3,4.1 0.3639,4.3387 0.25,8.65 5.2256,-4.9873 8.35,-12.2 3.1945,-7.3748 3.2,-14.8 -0.4391,-1.593 -1.25,-3.15 -2.65,-5.05 -7.4,-6.15 -4.0164,-1.0041 -9.25,1.25 -0.2096,0.091 -0.45,0.2 -6.25,3.4 -9.3,4.9 -8.35,4.2 -20.1,4.35 -7.45,0.15 -21.15,-1.7 -93.9,-12.5 -140.75,-18.75 -27.95,-3.6 -39.65,-4.95 -22.25,-2.55 -39.75,-3.7 -21.95,-1.45 -39.3,-0.9 -21.05,0.65 -38.95,4.3 -9.7,2 -25.3,6.5 -19.9,5.75 -25.2,7.1 -12.88789,3.2975 -24.1,4.6 m -27.9,40.8 q 18.44453,2.2033 51,7.2 162.868,-16.0207 326.15,-5.8 -3.2207,11.2219 -8.6,21.45 -22.5418,13.5324 -51.95,22.95 -28.05,9 -77.7,17.95 -92.35,16.8 -151.35,19.35 -83.7,3.6 -149.3,-16.1 -11.15,-3.3 -18,-7.1 -9.3,-5.15 -14,-12.55 -6.15,-9.85 -5.1,-26.9 1.88789,-14.8012 2.35,-23.85 1.21016,-0.4465 2.55,-0.8 5.1,-1.3 13.45,-1.3 35.85,0.05 80.5,5.5 m -76.85,84.2 q 4.3,1.05 18.1,5.55 75.65,23.9 168.75,14 39.3,-4.1 83.85,-14.55 36.2,-8.55 82.15,-22.85 19.75,-6.1 28.6,-8 16.15,-3.4 29.15,-2.1 3.65,0.3 6.2,1.55 1.9387,0.9693 2.95,2.4 0.5877,0.8697 0.85,1.9 0.65,2.45 -0.8,5.2 -1.1,1.95 -3.55,4.45 -14.7824,14.7824 -32.3,25.75 -0.7574,0.5611 -1.55,1.1 -0.6836,0.499 -1.4,1 -49.4,33.95 -107.9,48.75 -59.15,14.8 -107.25,4 -11.7,-2.9 -17.55,-4.15 -10.15,-2.2 -17.7,-2.2 -7.45,-0.1 -18.15,2.1 -12,2.7 -18.1,3.75 -33.65,5.8 -66.95,-7.3 -33.3,-13.1 -54.05,-40.3 -5.3,-7.05 -7.05,-13.7 -0.36875,-1.3824 -0.6,-2.7 7.03711,-4.7033 15.8,-5.5 8.2,-0.65 18.5,1.85 m 293.95,-380.8 q -1.5346,-7.3943 -8.2,-26.95 22.116,25.7088 40.3,46.35 29.6652,33.7416 48.9,54 53.45,56.3 102.4,94.2 7.25,5.55 21.9,16.65 1.1492,0.8844 2.25,1.75 9.5023,10.1023 22.95,23.55 21.55,23.1 30.15,42.55 9.05,20.25 9.9,46.55 0.65,20.8 -4,48.3 -2.75,15.85 -9.2,47.4 -1.6352,8.9293 -2.75,17.05 1.5834,-4.802 3.4,-9.85 11.85,-30.95 17.15,-46.6 9.1,-26.7 11.3,-48.5 2.75,-26.85 -4.55,-48.6 -4.55,-13.25 -13.7,-26.95 -7.35,-11 -18.9,-23.95 -20.85,-23.65 -55.75,-55.05 -39.3,-34.6 -58.4,-52.55 -16.1,-15.1 -39.85,-39.15 -35.75,-36.3 -39.25,-39.75 -47.35,-47.05 -84,-73 -14.05,-9.95 -25.25,-14.05 -14.95,-5.45 -27.25,-1.8 -7.7,2.3 -12.5,8.45 -2.39219,3.0592 -3.25,6.15 7.36133,-4.8459 17.35,-6.25 14.95,-2.05 28.4,4.5 12.4,6.2 21.85,18.4 8.55,11 13.75,25.6 7.85,22.15 4.75,41 -0.4797,3.1781 -1.3,6.2 -3.5652,7.2605 -10,13.9 -12.7,13.15 -31.55,19.55 -13.2,4.45 -35.95,7.55 -28.1,3.8 -36.55,5.7 -24.45,5.5 -46.4,18.45 -21.80137,12.8127 -38.55,31.4 -13.05391,21.5789 -28.35,26.45 -1.51797,0.4832 -3.05,0.9 -2.25918,0.7914 -4.6,1.25 -1.12129,0.2229 -2.2,0.35 -20.9209,3.941 -38.5,-4.95 -8.55,-4.25 -17.1,-12.3 -5.45,-5.05 -14.7,-15.6 -9.75,-11.2 -14.55,-15.85 -8.5,-8.3 -16.75,-12.85 -2.1,-1.15 -18.3,-8.2 -11.1,-4.85 -16.7,-10.3 -8.35,-8 -10.55,-20.85 -2.05,-11.75 1.4,-24.05 2.95,-10.25 9.95,-21.65 4.08945,-6.7049 12.85,-18.6 4.90664,-1.9467 10.35,0.1 6.4,2.45 6.85,8.3 2.05,-4.45 0.2,-8.95 -1.65,-4.15 -6,-7.2 -4.3,-3.05 -9.45,-3.9 -5.45,-0.9 -10,1.05 -8.3,3.55 -14.6,13.2 -3.8,5.9 -9.15,18.55 -25.3,61.05 -60.6,118.35 -15.75,25.45 -20.4,34.6 -10.25,20.1 -12.6,37.4 -3.85,28.6 11.2,61.7 8.7959,19.2355 29.05,48.45 -2.7541,-6.0816 -6.35,-14.05 -9.2,-20.3 -13.65,-34.2 -6.05,-19.05 -6.75,-36.35 -0.85,-19.75 5.35,-35.9 4.75,-12.6 16.4,-28.4 13.75,-17.4 20,-26.5 12.6,-18.3 23.1,-43.85 4.99434,-12.1455 11.95,-32.85 0.5123,4.0012 1.95,8.2 3.95,11.4 13.35,20.9 6.25,6.2 19.15,15.4 14.05,10 19.5,14.95 6.45,5.8 14.3,15.05 4.45,5.3 13.25,16.15 16.3,19.5 30.45,26.8 11.17246,5.8627 27.4,8 22.84824,-2.5146 48.2,-18.75 10.15,-6.55 27.85,-20.4 18.65,-14.6 27.65,-20.6 24.25,-16.1 52.35,-25.2 28,-9.05 57.15,-10.3 5,-0.25 15.15,-0.75 8.5037,-0.6881 14.55,-2.8 5.4863,-3.5584 8.45,-6.7 4.55,-4.75 7.85,-11.85 2.6,-5.7 4.65,-13.65 5.85,-22.2 5.1,-45 -0.3,-8.6 -1.65,-14.95 m 304.35,-339.45 q 4.5,-4.75 5.45,-10.85 -6.75,6.75 -16,10.05 -9.3,3.25 -18.75,2.2 5.3,-1.5 9.5,-5.15 4.25,-3.7 6.35,-8.7 -16.8,5.95 -40.9,3.05 -8,-0.95 -20.95,-3.4 -16.7,-3.2 -20.9,-3.9 -27.5537,-4.4846 -55.5,-2.65 -23.9883,3.0789 -42.75,8.35 -31.5,8.9 -58.25,26.9 -5.1,3.45 -15.25,10.7 -9.05,6.25 -16,9.55 -5.85,2.5 -8.65,3.95 -4.8,2.4 -7.7,5.3 -0.031,0.03 -0.05,0.05 -1.95,4.2605 -1.95,9.1 0,4.65 2.35,6.75 0.8,0.65 2.05,1.1 0.7,0.3 2.2,0.75 1,0.25 3,0.8 1.75,0.4 3,0.45 2.8,0.15 8.5,-1.1 l 10.6,-2.5 q 23.9627,-1.0518 57.7,0.9 11.55,0.65 34.65,2.15 20.25,1.15 34.7,1.3 39,0.55 69.45,-6.25 35.1395,-7.7928 60.5,-25.6 1.2277,0.8277 2.55,2.5 3.25,4.25 3.35,7.25 0.2346,3.0504 -2.05,6.75 4.7008,-3.7756 8.8,-8.15 2.25,-2.15 1.75,-4 -0.5,-1 -0.5,-1.5 0.1,-0.4 0.45,-0.6 0.3,-0.2 0.55,0 v 10.35 q 0,4.05 -0.75,6.6 -0.6543,2.2898 -2,3.65 3.5895,-2.8406 6.5,-7.35 2.6252,-4.1525 5,-10.2 9.8391,-0.1322 18.95,-3.35 9.8055,-3.45 16.65,-9.8 2.6244,-2.3586 4.8,-5.15 2,-2.75 2.25,-4.5 -1.4057,4.7014 -8.45,7.65 -0.2217,0.108 -0.45,0.2 -8.25,3.25 -17,3 7.5443,-2.8238 13,-9.1 1.0498,-1.1621 2,-2.45 2.4615,-3.351 4,-6.95 -4.4854,2.8146 -9.95,4.4 -0.4725,0.1701 -0.95,0.3 -12.5,3.35 -23.95,-0.95 5.1,0.3 8.85,-4 3.8,-4.3 2.75,-9.35 -7.2,4.7 -15.9,6.65 -8.7,1.95 -17.2,0.7 6,-1.1 10.55,-5.9 m -269.8,49.4 q 1.4,-5.5 6.45,-9.2 5.05,-3.65 10.8,-3.3 0.8,0.05 4.65,0.7 2.85,0.45 4.6,0.3 3,-0.35 6.3,-2.5 1.5,-0.95 5.55,-4.35 15.1,-13.05 34.35,-20.05 17.8682,-6.5609 36.35,-6.85 -0.8576,2.1363 -1.5,4.5 -2.3,8.5 -0.8,17.75 1.2,7.95 5.35,16.75 1.2805,2.726 3,5.85 -6.7402,0.2232 -14.4,0.1 -5.25,-0.1 -27.55,-1.1 -26.1996,-1.1619 -43.85,0.7 -3.5033,1.4869 -6.7,2.35 -5.95,1.65 -11.6,1.35 -6.15,-0.3 -11,-3 m 164.85,-30 q -0.55,0.25 -2,0.65 -4.2,1.15 -6.85,-0.25 -2.25,-1.2 -3.75,-4.15 -1.7,-2.85 -2,-4.85 -0.6422,-3.2566 1.15,-6.85 0.5895,-0.2893 1.2,-0.55 2.75,-1.1 5.4,-1.15 3,-0.05 5.25,1.3 2.95,1.65 4.2,5.2 1.25,3.45 0.3,6.8 -0.25,1.8 -1.25,2.6 -0.6,0.75 -1.65,1.25 m -290.35,-18.25 q -13.9,20.8 -20.25,44.15 -6.65,24.45 -4,48 13.75,-63 57.85,-113.6 39.0875,-44.8486 91.1,-67.5 -27.7998,9.451 -53.1,24.35 -46.45,26.85 -71.6,64.6 m 414.35,-6.7 q -21.3824,-20.4996 -59.75,-37.95 -38.3137,-17.4109 -90.45,-18.15 -52.1371,-0.7381 -98.25,18.85 -46.066,19.6461 -76.65,57.9 45.1744,-39.6412 106.25,-55.65 68.1,-17.8 133.35,-0.3 23.3,6.35 50.8,18.65 13.0377,5.7732 34.7,16.65 M 1221.5,1669 q 39,-4.45 72.25,-22.4 19.3451,-10.4271 34.4,-24.25 -14.2998,9.6697 -30.95,17.05 -30.75,13.6 -65.85,17.85 -61.15,7.45 -135,-13.4 -31.3,-8.85 -40.55,-10.45 -11.7453,-2.0713 -22,-1.75 4.3715,0.9305 8.95,2.3 7.55,2.2 30.6,11.4 80.55,31.55 148.15,23.65 m 82.75,-341.8 q 5.9059,1.3555 11.75,2.8 61.408,15.3766 118.5,46.05 64.4156,34.6113 115.7,84.7 -9.392,-19.6656 -25.3,-38.75 -22.45,-26.95 -61.65,-56.5 -62.6379,-47.2607 -132.4,-83.75 -35.5168,-10.3525 -80.1,-5.35 -38.4,4.25 -98.9,23.2 -36.15,11.2 -56.2,22.75 -13.8947,7.9775 -23.7,17.7 -9.2254,10.882 -16.45,23.2 5.8078,-12.6312 16.45,-23.2 3.5561,-4.1811 7.4,-8.15 13.8,-14.3 30.5,-24.9 -25.9,7 -46.85,25.2 -20.95,18.15 -31.65,42.9 3.1,-16.35 11.65,-31.05 8.55,-14.65 21.25,-25.55 -19.65,10.35 -34.1,28.1 -14.35,17.7 -20.65,39 0.1,-15.35 4.45,-30.3 1.3203,-4.4711 2.95,-8.8 -6.7236,8.4734 -11.15,19 -7.75,18.5 -5.9,37.75 -10.15,-24.1 -8.5,-49.65 -4.55,17.25 -3.05,35.4 1.5,18.15 8.8,34.35 -8.6,-10.85 -13.05,-24.3 -1.12793,-3.435 -1.95,-6.9 0.2666,14.1785 0.9,19.1 1.3,10.8 6.5,18.95 5.95,9.2 15,11.4 5.9,1.5 13.25,-0.25 5,-1.15 12.85,-4.6 26.65,-11.7 74.55,-38.2 50.1,-27.75 74.2,-38.8 25.7387,-11.7527 49.75,-18.95 38.7092,-11.5896 72.95,-11.4 1.0824,-1.0529 2.2,-2.2 z"
             id="path4"
             inkscape:connector-curvature="0"
             style="fill:#000000;stroke:none" />
          <path
             d="m 1344.7,736.15 q 13.6213,-4.25547 27.35,-6.45 -18.0014,1.13066 -30.3,2.8 -40.65,5.45 -69.75,20.25 17.95,-32.8 38.5,-51.25 7.9377,-7.05234 16.5,-12.35 -24.0064,6.60312 -44.1,22.6 -19.9816,15.86914 -31.9,37.6 3.9287,-2.02539 8,-3.75 -22.65,30.55 -39.15,65.15 29.25,-20.35 65.75,-25.7 10.0668,-1.47559 19.9,-1.7 -8.8002,11.97559 -15,25.65 7.05,-5.4 18.2,-5.3 7.85,0.05 19.9,3.15 48.9,12.5 89.45,29.4 45.8,19.15 82.55,44.6 40.1,27.8 69.4,63.4 31.2,37.95 46.85,80.85 l -74.65,-59.25 q 0.3342,0.42832 0.65,0.85 7.95,10.65 11.5,24.4 3.05,11.8 3.15,26.6 0.1,10.6 -1.5,26.9 -5.95,62.45 -22.5,132.2 -11.6996,49.333 -30.05,107.5 5.1551,2.7775 13.6,7 11.45,5.7 17.05,8.95 9.5,5.65 19.85,13.8 7.65,6.05 18.4,15.7 17.05,15.15 27.4,25.7 14.5,14.65 24.5,28.4 17.5,23.75 27.65,51.85 10.15,28.1 11.85,57.55 7.75,-41 10.35,-61.7 4.3,-34.5 2.4,-62.05 -0.8,-11.4 -2.95,-19.1 -2.85,-10.2 -8.55,-16.8 42.2,46.8 62.45,108.2 20.25,61.45 14.15,124.05 -1.2,12 -3.1,20.3 -2.5,10.85 -6.9,19.1 -5.85,10.9 -17.25,21.75 -6,5.75 -21.6,18.1 -29.2314,23.277 -47.9,44.25 -2.0027,2.3008 -3.9,4.55 -10.7592,12.7645 -18.65,25.8 l -0.5,25.45 q -5.7566,22.4387 -9.05,50.45 -4.6,38.55 -5.65,89.65 -0.25,12.75 -0.45,90.1 -0.1,54.8 -2.3,89.8 -3.1,48.85 -11.35,88.7 -17.75,85.85 -69.4,179.15 -76.7783,138.748 -177.65,177.75 -0.6172,-3.4906 -0.8,-7.35 -0.35,-8.35 1.45,-19.4 4.65,-27.1 18.45,-55.6 11.55,-23.85 30.55,-50.65 10.2,-14.4 35.75,-47 23.35,-29.8 35.15,-47.25 4.7,-6.9 7.1,-11.6 3.35,-6.65 4.25,-12.65 1.1,-6.9 -1.55,-13.05 -2.95,-6.7 -8.95,-8.6 -3.7,-1.15 -8.05,-0.1 -3.8,0.9 -7.55,3.25 -5.45,3.4 -10.6,9.55 -3.2,3.8 -8.55,11.7 -47.9,70.85 -89.1,146.35 -11.55,21.05 -13.4,24.35 -7.85,13.75 -14.75,23.55 -12.4344,17.9287 -30.6,36.15 -69.885,55.6055 -154.4,90.8 -61.3215,25.5773 -124.85,38.1 v -0.7 q -13.61445,1.4896 -24.65,1.9 -25.45,0.9 -53.8,-3.1 -24.5,-3.5 -52.95,-10.9 -15.15,-3.9 -25.95,-7.6 -13.75,-4.8 -24.8,-10.65 -16.35,-8.8 -34.6,-24.25 -34.75,-29.15 -51.65,-60 -8.6,-15.75 -13.4,-33.2 -3.75586,-13.6152 -5,-27.55 8.21406,3.7182 17.3,5.7 17.65,3.9 35,0.55 -15.85,-2.45 -29.8,-11.3 -13.9,-8.9 -22.85,-22.2 31.25,5.05 62.95,0.65 31.75,-4.4 60.3,-17.8 -30.3,-2.8 -55.25,-12.85 -53.7,-21.6 -98.1,-82.15 -21.65,-29.45 -37.5,-62.45 -15.85,-33.05 -25.25,-68.3 -5.1,42.35 2.85,87.3 7.4,42.3 25.75,83.85 5.15,11.7 15.7,35.2 8.35,20.5 10.2,36.65 1.25,10.55 0.35,23.8 -0.55,7.85 -2.65,23.85 -4.1,31.7 -2.1,47.6 1.03867,8.0074 3.75,16.85 5.10195,8.1816 10.25,16.05 13.15,20.2 23.75,32.7 6.38906,7.5322 12.95,13.75 -5.52891,-15.642 -9.15,-32.05 -2.9457,-13.4062 -4.55,-26.95 -3.96895,-16.627 -1.75,-31.45 -0.0268,15.8154 1.75,31.45 0.54297,2.1145 1.15,4.25 4.45,15.65 14.5,33.65 19.6,35.6 44.35,54.25 10.77559,8.1277 24.15,14.3 95.71973,23.767 181.1,16.35 13.99883,-1.2178 27.65,-3.3 v 2 q 1.2475,-0.1559 2.4,-0.3 29.8,-3.75 52.85,-9.8 16.15,-4.2 42.5,-13.35 41.4,-14.5 70.35,-27.5 37.25,-16.7 66,-35.9 33.1,-22.1 57.25,-49.2 26.35,-29.6 40.15,-63.05 -11.55,40.8 -35.05,76.7 -16.5281,25.2475 -37.55,45.9 87.4607,-31.6012 168.35,-78.75 70.593,-41.1791 133.2,-92.45 17.7371,-17.0574 33.9,-36.05 46.65,-54.85 75,-119.85 4.9363,-11.2326 9.95,-24.45 h -2.75 q 7.8338,-17.0021 15.4,-36 9.0684,-22.633 17.8,-48.1 11.5,-33.6 30.85,-98.7 15.849,-53.55 45.4,-132.15 -0.7156,12.6955 -2.9,25.3 -3.7,21.3 -11.5,41.35 37.8,9 76.9,-0.05 39.15,-9 69.25,-33.7 12.25,-10 24.65,-24.15 9.5,-10.85 21.6,-27.1 28.35,-37.85 53.1,-79.1 -14.5,9.55 -30.25,15.6 -4.4,1.75 -8.6,1 -4.8,-0.8 -4.9,-4.6 4.5,-5.45 12.6,-10.9 4.65,-3.15 14.3,-9.1 19.05,-12.75 35.35,-34.55 12.95,-17.25 26,-42.95 17.7576,-34.9102 30.6,-71.4 4.8248,-16.9832 7.55,-32.25 1.7,-9.5 4.25,-30 3.85,-31.25 5.85,-46.85 2,-15.8 2.6,-24 1.05,-13.35 0.3,-24.15 -0.9,-12.3 -5.15,-29.75 -4.8,-19.55 -11.3,-33.1 -8.3,-17.15 -20.45,-27.5 -15.15,-12.7 -40.85,-18.65 -12,-2.5 -19.75,-1.5 -9.8,1.25 -21.75,9.25 -16.1,11 -27,26.15 -9,12.4 -17.25,31.8 -4.75,11.15 -13.5,33.95 -8.15,19.65 -16.8,32.5 -11.1,16.6 -25.2,25.6 15.75,-4.55 28.8,-15.35 12.9,-10.7 20.45,-25.25 -4.05,17.7 -12.45,32.55 -9.05,16.05 -22.05,26.7 -13.9,11.35 -31.15,15.45 -10.6896,2.5465 -20.8,1.75 -4.7176,31.5023 -16.45,66.55 -10.6,31.7 -33.85,84 -27.35,61.65 -35.85,83.75 -18.35,47.55 -25.05,86.6 16.027,-120.8045 53.3,-236.6 0.5182,-15.8859 -1.5,-32.25 -3.1082,-25.0195 -11.7,-47.5 11.5262,12.2863 26.8,19 -24,-27.3 -34.6,-47.7 -14.95,-28.85 -10.4,-54.45 2.45,20.15 14.7,37.3 12.2,17.15 30.4,25.95 -23.6,-31.7 -35.75,-70.05 -8.3994,-26.6213 -10.45,-53.8 6.8541,14.2715 17.25,27.1 20.25,25.05 48.6,37.9 -23.95,-20.35 -43.85,-54.4 -12.3,-21.1 -31.15,-63.85 11.35,23.35 30.65,41.6 19.35,18.25 43.35,28.25 -29.55,-26.05 -52.65,-58.4 -23.15,-32.3 -38.25,-68.7 6.4,12.75 18.25,26.45 6.35,7.35 22.55,23.55 14.85,14.9 22.1,23.8 4.0529,4.9535 7.4,9.85 -23.1299,-39.0471 -55.1,-72.25 -25.6568,-26.6436 -55.2,-47.7 20.1793,5.7084 41.5,18.2 15.6621,9.1615 39.45,27.3 -41.2604,-33.0098 -62.45,-52.55 -41.5,-38.4 -66.35,-76.05 27.05,28.8 58.95,52.45 31.85,23.65 67.3,41.3 -50.35,-30.35 -86.2,-78.7 -35.85,-48.35 -50.3,-105.3 21.95,42.3 55.75,76.75 33.75,34.5 75.6,57.25 -44.9,-30.4 -78.4,-74.1 -33.5,-43.75 -51.1,-95 26.45,44.3 64.65,80 38.2,35.65 84.25,59 -48.45,-32.65 -83.95,-80.2 -35.65,-47.7 -53.05,-103.3 21.95,49.4 65.15,85.1 19.3785,16.0367 40.65,27.35 -15.6543,-14.1424 -29.3,-31 -33.4,-41.25 -48.4,-90.85 14.35,38.55 50.95,62.5 36.55,23.9 77.55,21.65 -35.45,-13.75 -72.1,-41.6 -26.65,-20.2 -63.25,-55.65 43.2,7.65 65.5,15.25 30.5846,10.4699 50.4,27.7 -24.6199,-22.7295 -55.15,-37.95 -34.15,-17.05 -71.25,-22.5 33.75,-6.75 68.3,-0.25 19.1793,3.6082 36.6,10.9 -18.1457,-8.5152 -37.3,-14.9 -33.75,-11.25 -68.75,-15.25 33.7,-14.65 71.7,-10.9 7.0197,0.69277 13.75,1.95 -4.8734,-3.08945 -9.75,-5.95 -1.517,-0.87852 -3.05,-1.75 -31.25,-17.6 -63.25,-24.95 -3.7309,-0.85391 -7.45,-1.55 21.8975,2.24629 43.55,7.15 -77.75,-41.1 -163.35,-58.65 40.85,-3.05 81.4,5.85 13.0914,2.87695 25.7,6.9 -23.0252,-13.22812 -44.5,-20.6 -24.55,-8.4 -71.7,-15.25 -26.45,-3.85 -36.35,-5.6 -20.3,-3.6 -35.8,-8.15 -6.2,-1.85 -9.95,-3.85 -5.1,-2.85 -7.55,-6.9 10.5,4.7 16,6.9 8.95,3.55 16.35,5.45 14.1,3.75 31.8,4.4 12,0.4 32.4,-0.65 24.25,-1.3 32.6,-1.35 18.25,-0.1 32.2,2.35 -16.45,-5.95 -42.25,-7.5 -29.1,-0.8 -43.5,-2.25 -31.5,-3.25 -81.5,-20.45 -39.8,-13.75 -40.05,-13.85 -23,-7.55 -40.7,-11.45 61.6,-3 122.15,9.65 -9.5,-6.5 -23.1,-11.3 -8.45,-3 -24.9,-7.2 -42.7,-11.1 -65.25,-16.15 -14.7,-3.25 -23.05,-3.85 -8.6518,-0.57012 -15.9,0.85 34.4715,-9.52109 54,-12.35 4.6852,-0.68398 9.2,-1.15 -11.2869,-2.58828 -23.1,-4.05 -49.75,-6.15 -95.8,9.2 27.75,-22.65 62.85,-33.6 M 2073.3,1417 q 12.05,4.9 18.7,14.5 5.25,7.75 7.4,19.3 0.6584,3.6094 1.15,8.75 1.4273,1.9414 2.15,4.35 1.5,4.9 -1.35,8.1 -0.3074,-7.0691 -0.8,-12.45 -1.2607,-1.7021 -3.05,-3.05 -2.2,-1.55 -7.9,-4.35 -5.2,-2.55 -7.6,-4.55 -0.9,-0.75 -5.4,-5.65 -3.2,-3.45 -6,-4.6 -3.45,-1.5 -8.15,-0.65 -2.65,0.45 -8.2,2.4 -15.6,5.1 -23.2,8.1 -13,5.15 -21.2,11.65 -8,6.3 -18.55,20.5 -12,16.1 -17.55,21.5 -3.05,3 -6.05,4.3 -3.7,1.65 -6.7,0.45 -5.35,-2.15 -5.9,-11.85 -0.3953,-8.0924 1.05,-16 2.3346,-3.2246 4.8,-6.4 18.75,-24.15 43.8,-40.85 24.25,-16 44.75,-17.25 12.5,-0.9 23.8,3.75 m -39.1,41.6 q 9.65,-7 19.15,-8.1 13.3,-1.6 25.6,7.55 11.5,8.55 16.9,22.2 4.5,11.6 5.25,27.15 0.45,9.95 -0.75,28.1 -1.3,-15.35 -11.25,-28.1 -9.95,-12.75 -24.6,-17.8 20.6,45.2 11.6,109.9 -3.1,22.55 -11.1,54.75 -4.4268,17.8051 -13.45,53.05 6.5828,-28.5209 10,-45.7 9.4,-47.45 12.3,-85.85 1.7,-23.15 -0.6,-39 -3.1,-21.15 -13.75,-35 -5.45,-6.95 -12.2,-11.05 -7.6,-4.6 -15.3,-4.6 -5,-0.05 -10.6,1.85 -4.35,1.5 -10.05,4.55 -12.1082,6.4619 -22.8,15.1 13.9674,-17.1951 29.8,-34.35 9.25,-9.9 15.85,-14.65 m -29.25,71.15 q 3.45,-6.8439 8.85,-12.9 2.2404,-2.5113 4.65,-4.7 15.5018,1.7334 24.9,13.1 15.6,18.5 12.25,55.35 -1.4,15.35 -6,36.7 -2.6,12.15 -8.1,36.45 -2.2,10.4 -6.4,31.7 -3.95,18.6 -7.85,31.4 -10.7,34.95 -30,54.75 21.45,-30.95 27.35,-69.4 5.9,-38.45 -5.25,-74.45 -2.2,-7.1 -7.4,-20.8 -5.35,-14.05 -7.5,-20.8 -7.8,-24.4 -4.35,-42.15 1.1621,-5.8686 3.45,-11.3 -3.723,5.5178 -10.35,13.9 -9.05,11.35 -12.85,17.9 -5.9,10.4 -6.85,21.15 -1,12.1 5,20.45 3.15,4.5 10.05,9.45 10,7.15 11.3,8.3 8.25,7.2 13.4,18.45 4.55,9.85 6.5,22.3 3,19 -0.9,38.7 -3.8,19.1 -13.5,36.4 -9.75,17.35 -24.05,30.5 -14.8,13.6 -32.55,20.9 30.75,-20.9 44.5,-57.85 13.75,-37 4.1,-73 -3.2,-12.05 -10.8,-19.9 -8.75,-9.05 -18.45,-6.25 -4.6,1.35 -8.8,5.65 -2.9,2.9 -6.7,8.6 -10.6467,16.4484 -19.35,34 2.0637,27.2908 1.6,54.65 -0.3,25.25 -4.9,41.75 -6.15,22.3 -20.85,34 -2.6,2.1 -9.7,6.65 -6.35,4.1 -9.55,6.95 -4.8,4.4 -9.05,11.1 -3,4.7 -6.95,12.65 -8.7,17.1 -17.4,25.95 -12.15,12.3 -25.6,10.45 2.7,-15.25 15.4,-32.5 4.05,-5.4 11.7,-14.5 8.55,-10.2 11.8,-14.4 32.05,-41.55 37.75,-96.25 5.7,-54.75 -17.15,-102 3.7,1 7.9,4.05 1.3,0.95 7.1,5.9 8.8,7.5 15.25,6.95 5.1,-0.45 9.6,-4.9 3.35,-3.3 6.8,-9.35 15.0885,-26.8793 22.3,-56.95 0.6893,-0.8465 1.4,-1.7 14.3279,-17.2721 44.25,-41.1 m -59.2,283.25 q 6.4,1.45 9.2,9.25 2.3,6.4 1.65,14.85 -1.75,21.8 -11,42.6 -8.9691,20.1307 -23.85,36.9 -0.6543,3.5176 -2.15,7.15 -3.05,7.25 -9.15,12.3 -6.25,5.2 -13.7,6.3 -2.5803,0.3451 -5.1,0.15 -1.9697,1.2871 -4,2.5 -19.55,11.65 -41.05,16 -9.55,2.05 -17.1,1.6 -9.35,-0.5 -16,-4.75 -10.8,-6.85 -13.95,-22.55 -2.4,-11.8 -0.45,-29.05 7.7,-65.55 31.35,-127.9 20.7865,-54.7568 52.45,-103.25 4.4635,32.0936 -0.35,65.6 -7.75,53.55 -37.2,96.9 -3.6,5.3 -11.3,16.1 -6.65,9.65 -10.5,16.65 -10.7,19.4 -9.2,35.9 17.15,0.05 34.6,-8.1 15.5,-7.25 29.9,-20.3 11.2,-10 24.65,-26.2 7.7,-9.25 22.75,-28.05 4.75,-5.55 8.75,-8.15 5.6,-3.65 10.75,-2.45 M 639.25,813.65 q -1.37305,1.18906 -2.75,2.4 -20.15,17.7 -42,45.8 -50.25,64.8 -82.05,141.35 -31.85,76.5 -42.35,157.8 -5.05,39.4 -6,89.2 -0.52227,25.9871 0.15,74.65 9.78203,-5.5381 21.85,-6.55 16.1,-1.35 29.5,5.95 -7.2,-0.1 -13.8,3.7 -6.65,3.8 -10.2,10.15 13.75,-8.45 33.4,-6.75 3.05215,0.2627 6.3,0.75 12.77187,2.0861 28.45,8.15 38.35,14.6 73.15,37.3 34.7,22.65 63.7,51.95 -10.95,-23 -26.35,-43.15 28.85,30.35 45,68.9 -0.85,-15.35 -6.55,-29.9 -5.7,-14.55 -15.45,-26.5 13.2,13.05 21.95,29.7 8.75,16.65 12.05,34.95 -0.3,-15.25 -4.95,-29.9 -4.7,-14.75 -13.3,-27.25 18.44121,23.391 32.05,50.05 15.49727,24.7527 24.2,55.55 11.65,41.4 9.85,88.65 -1.5,39.7 -12.5,87.9 -2.56348,11.234 -6.55,26.2 -4.17285,15.8379 -9.95,35.8 1.02949,-4.859 2.15,-10.05 3.74707,-17.3521 6.25,-29.05 3.98047,-18.675 4.75,-22.8 5.4,-29.4 5.6,-52.8 0.19277,-22.0242 -4.1,-41.05 -0.24688,0.3791 -0.55,0.75 -3.65,4.4 -9.1,5.5 -4.35,0.85 -10.5,-0.05 -7,-1.35 -10.5,-1.85 -9.7,-1.45 -22.65,-0.15 -4.81875,0.652 -8.9,1.2 4.86641,0.2668 9.7,0.7 10.55,0.9 17.4,3.3 9.15,3.2 13.85,9.6 3.85,5.4 4.4,12.8 0.5,6.75 -1.8,13.7 -1.9,5.8 -5.95,12.25 -0.96035,1.5764 -2.25,3.5 -2.30254,3.3867 -5.65,7.85 -10.1,13.8 -16.75,20.4 -10.35,10.3 -21.4,14 6.5,1.65 15.95,0.9 5.4,-0.4 16.2,-1.65 4.73535,-0.3346 8.9,0 -1.33496,11.8486 -3.3,22.15 -8.55,44.9 -30.35,75.6 -10.25,14.3 -35.35,38.9 -25.2,24.65 -35.4,38.85 -15.1,21.05 -28.95,58.1 -3.8,10.25 -11.15,30.95 -6.65,18.3 -12.05,30.45 -4.4,9.7 -8.15,15.35 -5.35,7.9 -11.95,12.15 -12.55,8 -29.15,3.75 -15.65,-4 -26.25,-16.25 -9.1,-10.6 -14.7,-26.75 -3.9,-11.4 -7.3,-30.25 -12.5,-71.75 -9.1,-145.15 1.1,-27 5.35,-45 6.8,-28.3 24.75,-55.25 3.35,14.5 15.3,24.9 11.85,10.3 26.7,11.75 -13.95,-13.5 -24.35,-30.2 -10.35,-16.75 -16.25,-35.3 13.35,11.7 30.5,16.85 10.95,3.35 25.2,4.3 9.05,0.6 25.8,0.35 17.95,-0.25 26.85,-0.9 14.9,-1.1 26.4,-4.1 13,-3.25 28.1,-10.5 9.25,-4.45 26.5,-14.25 12.55,-7.05 18.7,-11.6 9.8,-7.2 15.05,-15.4 -79,2.6 -160.35,-1 -4.1,-0.25 -6.95,-1.8 -3.55,-1.95 -3.05,-5.1 0.4,-2.8 5.35,-5.25 33.86543,-16.0389 70.95,-23.05 -6.19238,-0.082 -12.6,-0.35 -24.6,-1 -68.85,-5.6 -33.4,-3.5 -40.85,12.75 0.75,-8.5 6,-15.85 5.25,-7.3 13.1,-10.75 -10.5,0.85 -18.8,8.45 -8.25,7.65 -9.95,18.05 -2.05,-10.15 0.75,-20.5 1.02266,-3.6854 2.55,-7 -2.79902,1.166 -5.6,3.1 -10.25,7.1 -12.55,18.5 -2.1,10.8 2.95,22 4.75,10.45 14.05,17.9 8.25,6.5 19.8,10.7 9.5,3.45 22.2,5.65 34.4,5.85 77.95,1.45 26.35,-2.7 77.8,-12.55 -30.7,14.1 -63.9,21.05 -33.3,7 -67,6.45 -21.65,-0.4 -38.4,-4.2 -20.35,-4.6 -35.2,-14.45 -16.8,-11 -25.7,-28.5 -9.4,-18.55 -5.8,-36.85 -6.4332,0.1293 -12.1,3.1 -3.28281,14.6572 -4,32.15 -0.6,15 0.8,40.3 1.6,30.35 1.7,40.5 0.15,22.75 -3.05,40.05 -1.7,9.35 -5.6,23.15 -6.2,21.8 -6.5,23 -9.9,38.8 -8.45,80.45 1.45,40.45 13.45,79.9 11.5,38.2 32.35,74.35 12.26406,21.2027 27.35,40.95 -10.46602,-6.0262 -21.7,-10.8 12.1,16.6 22.15,40.15 5.71719,13.3709 14.45,38.85 0.92129,-7.7119 3.4,-14.75 2.3,-6.95 6.35,-9.75 3.2,-2 7.25,-1.75 3.85,0.2 7.25,2.25 3,1.7 5.85,4.85 2.05,2.25 4.65,6.05 6.95,10.25 14.05,25.05 1.7,3.55 11.85,26.35 14.8,33.35 29,49.1 4.45,-15.1 0.6,-33.8 -2.85,-13.95 -11.25,-33.1 -2.8,-6.5 -2.9,-11.65 -0.15,-6.65 4.4,-9.1 0.54707,-0.2545 1.15,-0.45 -3.63828,-3.3998 -5.45,-7.75 0.0941,-2.4764 1.5,-5.35 3.3,-6.7 9.95,-8.55 5.3,-1.5 12.95,-0.5 4.4,0.55 13.15,2.1 17.4,2.1 44.6,-6.85 7.06973,-2.3242 21.1,-7.1 -2.39219,0.1514 -4.55,0.25 -31.6,1.5 -56.65,-1.4 -29,-3.45 -35.1,-19 -2.3,-5.6 -1.35,-12.45 0.9,-6.15 4.2,-12.05 2.8,-4.85 7.6,-10.2 2.3,-2.6 8.9,-9.2 15.55,-15.35 24.35,-27.15 5.11777,-6.8885 8.9,-13.75 9.53848,-2.1449 18.75,0.15 11.95,3.05 23.6,14.2 5.25,5.05 18.9,21.7 13.4,16.35 26.5,28.1 15.4,13.8 31.4,22.25 6.97773,3.7148 14.1,6.4 14.68633,7.9205 31.05,12.55 25.55,7.2 51.6,5.45 20.1,-1.4 35.15,-10 17.55,-10 20.85,-26.4 1.25,-6.05 0.5,-14.7 -1.2,-10 -1.75,-14.95 -2.05,-18.2 4.5,-27.1 3.75,-5.1 10.9,-8.6 4.85,-2.4 13.6,-4.9 11.8,-3.3 35.6,-9.5 20.65,-5.75 34.65,-11.85 18.25,-8 31.55,-19.15 15.15,-12.65 22.7,-28.35 5.2098,-10.7648 6.2,-22.25 52.3486,62.4936 115.05,115 10.7,8.95 32.15,26.8 18.1,15.75 29.45,29.45 14.4,17.3 22.2,35.65 0.9158,2.1738 1.7,4.35 5.2336,-2.2541 9.25,-1.25 4.75,1.1 7.4,6.15 0.8109,1.557 1.25,3.15 -0.01,7.4252 -3.2,14.8 -3.1244,7.2127 -8.35,12.2 -1.3051,1.2695 -2.8,2.4 -1.7865,4.0764 -4.85,8.35 -2.75,3.75 -8.1,9.7 -44.2,49.65 -68.3,73.75 -39.4,39.4 -75.95,65.1 47.65,-22.55 87.8,-57.95 23.7717,-20.9523 43.5,-45.15 1.2279,-3.5084 2.05,-5.8 2.9,-8.2 6,-12.35 4.15,-5.55 10.4,-7 0.2076,-0.048 0.4,-0.1 7.9385,-1.6357 15.15,4.65 7.05,6.1 8.6,15.1 1.4,7.55 -0.7,17.05 -1.3,5.8 -5.3,16.8 -15.6,43.55 -21.85,75.1 -8.25,41.85 -3.9,77.05 6.05,-26.95 26.2,-65 11.3,-20.75 16.85,-31.2 9.75,-18.35 15.55,-31.8 17.8,-41.6 21.35,-87.5 2.0105,-25.6074 -0.6,-50.6 -11.7998,-34.8088 -31.85,-59.9 -8.35,-10.45 -21.05,-22.7 -2.55,-2.4 -22.85,-21.05 -23.55,-21.6 -53.2,-52.1 -1.3,-1.35 -51.55,-53.85 -64.45,-67.35 -107.75,-102.45 -23.6,-18.5 -35.25,-27.9 -4.5354,-3.6504 -8.7,-7.15 -5.3164,-1.6648 -10.65,-2.55 -20.7,-3.45 -42.45,4.55 -20.25,7.45 -36.95,22.95 -10.7,10.1 -15.5,21.45 -5.7,13.4 -0.85,24.4 17.75,-15.6 30.75,-22.55 18.6,-9.95 35.25,-7.7 18.75,2.5 31.25,19.4 12.25,16.6 10.6,36 -1.55,18.75 -14.85,34.3 -12.9,15.05 -31.5,21.2 -9.7,3.2 -28.25,5.4 -19.9,2.35 -28.4,4.7 -5.55,1.5 -15.5,5.15 -11,4 -15.55,5.4 -11.01055,3.2791 -19.95,3.05 -7.58164,10.1623 -12.6,16.05 -1.86055,2.1895 -3.7,4.25 -8.0043,8.8471 -15.8,15.1 -11.35,9.3 -23.7,14.1 -13.65,5.3 -26.8,4.4 -11.6,-0.7 -24.05,-6.4 -10,-4.55 -21.7,-12.95 -11.35,-8.05 -19,-15.85 -9.3,-9.55 -14.25,-19.8 -7.25,-15.15 -6.4,-34.3 0.75,-16.95 7.65,-34.95 5.2,-13.4 15.75,-31.75 12.2,-20.4 17.85,-30.85 23.79121,-43.2055 37.25,-97.6 8.05293,-32.5566 12.4,-69.15 4.65,-38.45 5.75,-87.25 0.14922,-6.9465 0.2,-15.85 -0.53809,-5.1393 -1.15,-10.05 -10.4,-82.45 -38.8,-141.1 10.8,30.75 16,62.6 -6.95,-6.8 -14.25,-19.9 -10.6,-18.95 -12.25,-21.45 -5.85,-8.45 -14.6,-16.95 -6.85,-6.7 -16.9,-14.7 -51.4,-40.35 -111.9,-62.75 -19.5,-7.2 -33.5,-9.5 -21.9,-2.4 -32.5,-4.55 -4.9791,-0.9984 -9.3,-2.45 -3.20156,-6.4842 -5.3,-13.1 -5.65,-17.7 -2.65,-35.65 3.15,-19 15.15,-31.6 12.5,-13.3 31.85,-14.95 19.85,-1.7 32.65,10.45 -19.2,-44.75 -21.85,-99 -2.4,-48.45 8.45,-102 10.4,-51.55 30,-92.2 22.55,-46.55 56.4,-77.05 37.15,-33.5 85.75,-43.6 51.1,-10.6 93.25,9.95 -8.25,-10 -20.05,-16.2 -11.75,-6.15 -24.7,-7.3 15.8291,-4.74863 32.05,-7.45 -58.82441,-16.88047 -121.2,-5.3 -38.16836,7.05586 -71.35,23.55 M 1035,1844.2 q 6.6654,19.5557 8.2,26.95 1.35,6.35 1.65,14.95 0.75,22.8 -5.1,45 -2.05,7.95 -4.65,13.65 -3.3,7.1 -7.85,11.85 -2.9637,3.1416 -8.45,6.7 -6.0463,2.1119 -14.55,2.8 -10.15,0.5 -15.15,0.75 -29.15,1.25 -57.15,10.3 -28.1,9.1 -52.35,25.2 -9,6 -27.65,20.6 -17.7,13.85 -27.85,20.4 -25.35176,16.2354 -48.2,18.75 -16.22754,-2.1373 -27.4,-8 -14.15,-7.3 -30.45,-26.8 -8.8,-10.85 -13.25,-16.15 -7.85,-9.25 -14.3,-15.05 -5.45,-4.95 -19.5,-14.95 -12.9,-9.2 -19.15,-15.4 -9.4,-9.5 -13.35,-20.9 -1.4377,-4.1988 -1.95,-8.2 -6.95566,20.7045 -11.95,32.85 -10.5,25.55 -23.1,43.85 -6.25,9.1 -20,26.5 -11.65,15.8 -16.4,28.4 -6.2,16.15 -5.35,35.9 0.7,17.3 6.75,36.35 4.45,13.9 13.65,34.2 3.5959,7.9684 6.35,14.05 -20.2541,-29.2145 -29.05,-48.45 -15.05,-33.1 -11.2,-61.7 2.35,-17.3 12.6,-37.4 4.65,-9.15 20.4,-34.6 35.3,-57.3 60.6,-118.35 5.35,-12.65 9.15,-18.55 6.3,-9.65 14.6,-13.2 4.55,-1.95 10,-1.05 5.15,0.85 9.45,3.9 4.35,3.05 6,7.2 1.85,4.5 -0.2,8.95 -0.45,-5.85 -6.85,-8.3 -5.44336,-2.0467 -10.35,-0.1 -8.76055,11.8951 -12.85,18.6 -7,11.4 -9.95,21.65 -3.45,12.3 -1.4,24.05 2.2,12.85 10.55,20.85 5.6,5.45 16.7,10.3 16.2,7.05 18.3,8.2 8.25,4.55 16.75,12.85 4.8,4.65 14.55,15.85 9.25,10.55 14.7,15.6 8.55,8.05 17.1,12.3 17.5791,8.891 38.5,4.95 3.36934,-0.6291 6.8,-1.6 4.98262,-1.7025 9.7,-4.95 5.3,-3.75 11.35,-10.45 6.75,-7.85 10.15,-11.7 0.11387,-0.127 0.2,-0.25 16.74863,-18.5873 38.55,-31.4 21.95,-12.95 46.4,-18.45 8.45,-1.9 36.55,-5.7 22.75,-3.1 35.95,-7.55 18.85,-6.4 31.55,-19.55 6.4348,-6.6395 10,-13.9 0.8203,-3.0219 1.3,-6.2 3.1,-18.85 -4.75,-41 -5.2,-14.6 -13.75,-25.6 -9.45,-12.2 -21.85,-18.4 -13.45,-6.55 -28.4,-4.5 -9.98867,1.4041 -17.35,6.25 0.85781,-3.0908 3.25,-6.15 4.8,-6.15 12.5,-8.45 12.3,-3.65 27.25,1.8 11.2,4.1 25.25,14.05 36.65,25.95 84,73 3.5,3.45 39.25,39.75 23.75,24.05 39.85,39.15 19.1,17.95 58.4,52.55 34.9,31.4 55.75,55.05 11.55,12.95 18.9,23.95 9.15,13.7 13.7,26.95 7.3,21.75 4.55,48.6 -2.2,21.8 -11.3,48.5 -5.3,15.65 -17.15,46.6 -1.8166,5.048 -3.4,9.85 1.1148,-8.1207 2.75,-17.05 6.45,-31.55 9.2,-47.4 4.65,-27.5 4,-48.3 -0.85,-26.3 -9.9,-46.55 -8.6,-19.45 -30.15,-42.55 -13.4477,-13.4477 -22.95,-23.55 -1.1008,-0.8656 -2.25,-1.75 -14.65,-11.1 -21.9,-16.65 -48.95,-37.9 -102.4,-94.2 -19.2348,-20.2584 -48.9,-54 -18.184,-20.6412 -40.3,-46.35 M 731.75,773.75 q 26.1,-4.05 52.4,1.65 26.07051,5.6502 47.95,19.95 26.15312,-4.33379 53.3,-3.35 44.1,1.6 84.7,17 -1.55,-2.8 -18.5,-33.15 17.25,6.25 51.65,18.9 l -5.65,-36.9 q 27.7,0.95 54.55,8.6 26.9,7.7 50.85,21.55 -8.45,-18 -23.3,-31.9 -14.9,-13.95 -33.45,-21.25 32.1,2.25 62.75,13.25 30.6,10.95 56.85,29.65 -7.15,-26.25 -23.75,-48.15 0.4777,0.1457 0.95,0.3 -17.2926,-30.76016 -25.05,-68.35 -7.45,-36.3 -5.5,-76.3 1.6531,-33.62969 10.05,-71.1 -16.6326,49.79746 -18.35,103.35 -1.95,59.2 14.65,115.1 -21.25,-40.35 -28.8,-86.25 -7.6,-45.85 -0.45,-91 -10.7,42.8 -8.65,87.45 2.05,44.7 16.65,86.2 -11.15,-10.05 -18.8,-26.25 -5.95,-12.55 -10.7,-31.15 -9,-35.4 -10.55,-72.15 -1.6,-36.7 4.3,-72.85 -15,48.75 -11.55,100.7 3.4,51.95 24.7,98.2 -30.9,-32.75 -49.95,-74.35 -4.1012,-8.93242 -7.55,-18 1.9533,14.41738 6.5,30 6.85,23.45 26,65.95 -19.3,-36.1 -48.45,-65.6 -3.40039,-3.44121 -6.9,-6.75 -26.43789,-25.05391 -58.15,-42.5 27.15,26.6 48.7,58 21.65,31.55 36.55,66.35 -21.65,-33.5 -52.95,-59.3 -18.67598,-15.41367 -39.45,-26.95 1.61563,1.26543 3.2,2.65 11.5,10.05 24.55,28.25 25.2,35.3 44.25,73.6 -20.8,-23.5 -36.15,-37.75 -16.85859,-15.65156 -33.45,-26.45 5.26953,5.05449 10.25,10.45 23.95,25.95 38.75,57.5 -31.3,-25.95 -53.75,-39.7 -31.2,-19.1 -60.65,-25.3 28.65,12.9 52.55,33.85 23.95,21.05 40.35,47.8 -25.39043,-20.66738 -55.6,-33.3 11.59297,9.98164 19.85,22.15 -26.35,-16.45 -65.3,-19.15 -16.63398,-1.16445 -42.35,0.35 15.9084,0.35508 31.9,4.3 30.2,7.5 54,26.15 -41.2,-12.55 -84.75,-13.6 -43.55,-1 -85.25,9.6 m 672.1,750.4 q -5.1,-6.95 -15,-13.65 -36.25,-24.6 -79.6,-38.05 -42,-13.05 -87.25,-14.6 -44.75,-1.55 -88.55,8.25 -44.25,9.9 -83.45,30.5 -4.4,2.25 -6.4,3.05 -3.65,1.4 -6.75,1.35 -3.65,-0.1 -6.45,-2.45 -3,-2.5 -2.8,-5.8 0.1,-2.3 1.75,-4.55 1.1,-1.55 3.5,-3.7 28.1,-24.75 78.9,-45.65 8.35,-3.45 43.35,-16.85 26.7,-10.2 42.9,-17.65 -59.85,7.05 -114.5,30.75 13.0193,-22.8551 39.3,-39.85 -40.0969,16.2893 -69.3,32.75 -44.35,24.9 -74.65,55.6 -34.5,34.95 -51.05,78.45 -17.8,46.9 -9.45,91.2 31,-48.1 51.1,-71.5 31.7,-36.9 66.65,-54 2.1971,13.2256 -2.4,26.2 -0.7365,2.1172 -1.65,4.2 -6.65,15.05 -19.7,23.6 -6.3,4.05 -8.85,6.85 -4.15,4.55 -2.65,9 1.7,4.9 10,6.9 14.4,3.85 35.95,3.85 12.2,0 36.55,-0.35 11.55,0.35 28.45,2.35 9.45,1.1 28.3,3.4 60.45,6.35 121.5,-3.15 15.6,-2.5 26.25,-5.55 14.05,-4.05 24.65,-10.2 0.2604,0.3445 0.45,0.7 1.2348,2.017 1.15,4.6 -0.15,3.05 -2,5.1 13.1,0.2 30.15,-11.2 9.35,-6.6 14.05,-9.8 8.4,-5.7 14.7,-8.5 4.95,-2.3 13.25,-4.6 11.5,-3.2 13.6,-3.9 16.6,-5.55 30.55,-16.75 13.95,-11.25 22.95,-26.25 -20.25,12.9 -43,17.75 2.15,-8.75 -4.5,-17.85 m -97,-35.95 q 38.3676,17.4504 59.75,37.95 -21.6623,-10.8768 -34.7,-16.65 -27.5,-12.3 -50.8,-18.65 -65.25,-17.5 -133.35,0.3 -61.0756,16.0088 -106.25,55.65 30.584,-38.2539 76.65,-57.9 46.1129,-19.5881 98.25,-18.85 52.1363,0.7391 90.45,18.15 M 932,1577 q 6.35,-23.35 20.25,-44.15 25.15,-37.75 71.6,-64.6 25.3002,-14.899 53.1,-24.35 6.6678,-2.8652 13.85,-4.3 -6.9928,2.0061 -13.85,4.3 -52.0125,22.6514 -91.1,67.5 -44.1,50.6 -57.85,113.6 -2.65,-23.55 4,-48 m 421,-56.15 q -0.95,6.1 -5.45,10.85 -4.55,4.8 -10.55,5.9 8.5,1.25 17.2,-0.7 8.7,-1.95 15.9,-6.65 1.05,5.05 -2.75,9.35 -3.75,4.3 -8.85,4 11.45,4.3 23.95,0.95 0.4775,-0.1299 0.95,-0.3 5.4646,-1.5854 9.95,-4.4 -1.5385,3.599 -4,6.95 -0.9502,1.2879 -2,2.45 -5.4557,6.2762 -13,9.1 8.75,0.25 17,-3 0.2283,-0.092 0.45,-0.2 7.0443,-2.9486 8.45,-7.65 -0.25,1.75 -2.25,4.5 -2.1756,2.7914 -4.8,5.15 -6.8445,6.35 -16.65,9.8 -9.1109,3.2178 -18.95,3.35 -2.3748,6.0475 -5,10.2 -2.9105,4.5094 -6.5,7.35 1.3457,-1.3602 2,-3.65 0.75,-2.55 0.75,-6.6 v -10.35 q -0.25,-0.2 -0.55,0 -0.35,0.2 -0.45,0.6 0,0.5 0.5,1.5 0.5,1.85 -1.75,4 -4.0992,4.3744 -8.8,8.15 2.2846,-3.6996 2.05,-6.75 -0.1,-3 -3.35,-7.25 -1.3223,-1.6723 -2.55,-2.5 -25.3605,17.8072 -60.5,25.6 -30.45,6.8 -69.45,6.25 -14.45,-0.15 -34.7,-1.3 -23.1,-1.5 -34.65,-2.15 -33.7373,-1.9518 -57.7,-0.9 l -10.6,2.5 q -5.7,1.25 -8.5,1.1 -1.25,-0.05 -3,-0.45 -2,-0.55 -3,-0.8 -1.5,-0.45 -2.2,-0.75 -1.25,-0.45 -2.05,-1.1 -2.35,-2.1 -2.35,-6.75 0,-4.8395 1.95,-9.1 0.019,-0.02 0.05,-0.05 2.9,-2.9 7.7,-5.3 2.8,-1.45 8.65,-3.95 6.95,-3.3 16,-9.55 10.15,-7.25 15.25,-10.7 26.75,-18 58.25,-26.9 18.7617,-5.2711 42.75,-8.35 27.9463,-1.8346 55.5,2.65 4.2,0.7 20.9,3.9 12.95,2.45 20.95,3.4 24.1,2.9 40.9,-3.05 -2.1,5 -6.35,8.7 -4.2,3.65 -9.5,5.15 9.45,1.05 18.75,-2.2 9.25,-3.3 16,-10.05 m 114.4,624.2 q 6.65,-42.05 -9.3,-80.55 -15.3,-37.15 -48.3,-64.9 -10.91,-9.1719 -22.85,-16.6 9.3244,11.9203 17.35,25.15 18.7,30.95 28.6,66.25 9.9,35.35 9.95,71.5 0.05,37 -10.25,71.35 28,-29.1 34.8,-72.2 M 1205.25,1635 q -21.65,-1.25 -57.65,-8.25 -42.15,-8.15 -57.5,-10 -32.15,-3.75 -58.55,0.7 -20.1105,3.4107 -36.2,11.5 1.2123,0.6271 2.5,1.3 55.45,28.6 100.7,42.45 56.55,17.4 106.7,15.3 27.4,-1.15 54.1,-9.05 27,-8 50.1,-22 50.45,-30.6 69.15,-79.7 -13.9377,11.7801 -29.35,21.25 -24.1506,14.9205 -51.9,24.15 -45.45,15.15 -92.1,12.35 m 88.5,11.6 q -33.25,17.95 -72.25,22.4 -67.6,7.9 -148.15,-23.65 -23.05,-9.2 -30.6,-11.4 -4.5785,-1.3695 -8.95,-2.3 10.2547,-0.3213 22,1.75 9.25,1.6 40.55,10.45 73.85,20.85 135,13.4 35.1,-4.25 65.85,-17.85 16.6502,-7.3803 30.95,-17.05 -15.0549,13.8229 -34.4,24.25 m 15.35,-978.1 q 12.45,-8.8 29.4,-18.4 -36.95,17 -67.15,43 -14.3,12.3 -22.1,23.85 -8.7578,13.04824 -10.05,26 1.6002,-23.96152 6.5,-47.6 1.0795,-5.09941 2.3,-10.2 6.9381,-29.10137 18.6,-56.5 -8.902,11.63594 -16.75,24.25 -23.35,37.45 -34.6,79.45 -1.25,-33.75 7.85,-66.75 9.15,-33.05 27.5,-61.35 -25.2,19.6 -40.2,49.05 -14.95,29.5 -15.9,61.45 -11.75,-22.7 -11.9,-51.95 -0.1,-25.45 8.5,-53.7 2.5084,-8.2416 6.35,-18.5 -7.3773,9.23789 -12.95,20.85 -8.05,16.85 -11.65,37.3 -3,17.05 -3.2,38.8 -0.15,12.8 0.95,39.05 -13.05,-33.65 -15.45,-70 -2.4,-36.45 6.2,-71.35 -19.25,28.7 -22.05,70.7 -2.0455,30.82891 4.9,74.3 16.002,5.29121 29.65,15.75 14.55,11.15 24,26.35 3.75,-11.2 11.55,-20.5 7.5438,-9.00391 17.65,-14.8 -9.102,23.6668 -15.3,48.3 8.55,-13.15 20.65,-23.4 8.4906,-7.13359 18.05,-12.25 2.8105,-15.90957 11.35,-31.3 8.15,-14.7 20.8,-27.65 11.35,-11.5 26.5,-22.25 m -843.05,766 q 3.4,-5.35 9.2,-9.4 13.2,-9.45 36.6,-11.25 21.3209,-1.7687 42.35,2 12.31016,2.2438 24.5,6.35 20.64121,6.9324 38.25,18.4 38.52344,18.448 73.05,43.5 15.85,11.45 24.5,21.75 9.10332,10.7514 12.15,22 0.0951,0.088 0.2,0.15 6.7,3.95 10.1,5.4 5.85,2.5 10.9,2.35 1.84883,-0.095 3.55,-0.65 -1.8877,-4.4439 -4.25,-8.9 -10.15,-19.1 -27.4,-34.7 -14.75,-13.5 -35.85,-25.55 -15.1,-8.65 -39.65,-19.7 -50.5,-22.8 -103,-41.65 -32.1,-11.45 -53.2,-14.9 -22.03633,-3.6727 -40.6,-0.85 -8.50781,7.2033 -12.7,17.75 -8,19.65 -1.15,49 6.53594,26.9785 21.15,50.45 32.27129,-12.517 66.45,-17.5 -23.78848,-7.9928 -41.35,-19.3 -16.45,-10.45 -17.25,-22.5 -0.35,-6.2 3.45,-12.25 z"
             id="path6"
             inkscape:connector-curvature="0"
             style="fill:#d9d9d9;stroke:none" />
          <path
             d="m 1910.5,1911.35 q 0.35,-1.6 -0.9,-3.5 -2,-3.5 -3.5,-4.85 -1.45,-1.45 -3.9,-2.7 -0.8,-0.45 -4.35,-1.95 -3.65,-1.35 -5.65,-1.7 -3.2,-0.55 -5.45,0.6 -0.9459,0.4545 -1.75,1.2 -1.2846,2.6951 -1.85,6.15 -0.65,3.65 -0.65,10 0,3.15 0.25,4.95 0.45,2.65 1.6,4.45 1.6,2.55 4.75,3.9 2.85,1.2 6.25,1.1 4.9,0 8.4,-2.25 1.9,-1.35 3.1,-3.2 1.25,-1.95 1.5,-4.05 0.05,-0.3 0.2,-2.7 0.05,-1.6 0.45,-2.55 1.25,-1.9 1.5,-2.9 m 44.45,-89.1 q -2.8,-7.8 -9.2,-9.25 -5.15,-1.2 -10.75,2.45 -4,2.6 -8.75,8.15 -15.05,18.8 -22.75,28.05 -13.45,16.2 -24.65,26.2 -14.4,13.05 -29.9,20.3 -17.45,8.15 -34.6,8.1 -1.5,-16.5 9.2,-35.9 3.85,-7 10.5,-16.65 7.7,-10.8 11.3,-16.1 29.45,-43.35 37.2,-96.9 4.8135,-33.5064 0.35,-65.6 -31.6635,48.4932 -52.45,103.25 -23.65,62.35 -31.35,127.9 -1.95,17.25 0.45,29.05 3.15,15.7 13.95,22.55 6.65,4.25 16,4.75 7.55,0.45 17.1,-1.6 21.5,-4.35 41.05,-16 2.0303,-1.2129 4,-2.5 -5.1002,-0.3654 -9.9,-2.95 -7.35,-4 -10,-11.2 -1.85,-4.9 -1.4,-11.85 0.55,-10.35 5.4,-19.9 1.2803,-2.5605 2.8,-4.9 2.2623,-3.0869 4.55,-4.7 5.1,-3.5 12.25,-3.25 10.9,0.4 19,9 8.15,8.65 7.9,19.5 -0.078,2.1617 -0.5,4.35 14.8809,-16.7693 23.85,-36.9 9.25,-20.8 11,-42.6 0.65,-8.45 -1.65,-14.85 m 58.85,-305.4 q -5.4,6.0561 -8.85,12.9 0.5762,-0.4453 1.15,-0.9 -1.035,1.7156 -2.55,3.85 -2.2879,5.4314 -3.45,11.3 -3.45,17.75 4.35,42.15 2.15,6.75 7.5,20.8 5.2,13.7 7.4,20.8 11.15,36 5.25,74.45 -5.9,38.45 -27.35,69.4 19.3,-19.8 30,-54.75 3.9,-12.8 7.85,-31.4 4.2,-21.3 6.4,-31.7 5.5,-24.3 8.1,-36.45 4.6,-21.35 6,-36.7 3.35,-36.85 -12.25,-55.35 -9.3982,-11.3666 -24.9,-13.1 -2.4096,2.1887 -4.65,4.7 m 78.2,-85.35 q -6.65,-9.6 -18.7,-14.5 -11.3,-4.65 -23.8,-3.75 -20.5,1.25 -44.75,17.25 -25.05,16.7 -43.8,40.85 -2.4654,3.1754 -4.8,6.4 -1.4453,7.9076 -1.05,16 0.55,9.7 5.9,11.85 3,1.2 6.7,-0.45 3,-1.3 6.05,-4.3 5.55,-5.4 17.55,-21.5 10.55,-14.2 18.55,-20.5 8.2,-6.5 21.2,-11.65 7.6,-3 23.2,-8.1 5.55,-1.95 8.2,-2.4 4.7,-0.85 8.15,0.65 2.8,1.15 6,4.6 4.5,4.9 5.4,5.65 2.4,2 7.6,4.55 5.7,2.8 7.9,4.35 1.7893,1.3479 3.05,3.05 -0.4916,-5.1406 -1.15,-8.75 -2.15,-11.55 -7.4,-19.3 m -1324.65,826 q -13.8,-4.5 -18.1,-5.55 -10.3,-2.5 -18.5,-1.85 -8.76289,0.7967 -15.8,5.5 0.23125,1.3176 0.6,2.7 1.75,6.65 7.05,13.7 20.75,27.2 54.05,40.3 33.3,13.1 66.95,7.3 6.1,-1.05 18.1,-3.75 10.7,-2.2 18.15,-2.1 7.55,0 17.7,2.2 5.85,1.25 17.55,4.15 48.1,10.8 107.25,-4 58.5,-14.8 107.9,-48.75 0.7164,-0.501 1.4,-1 0.7926,-0.5389 1.55,-1.1 12.7813,-9.1914 21.05,-17.55 9.3979,-9.5564 14.75,-19.75 -1.0113,-1.4307 -2.95,-2.4 -2.55,-1.25 -6.2,-1.55 -13,-1.3 -29.15,2.1 -8.85,1.9 -28.6,8 -45.95,14.3 -82.15,22.85 -44.55,10.45 -83.85,14.55 -93.1,9.9 -168.75,-14 m 109.75,-82.55 q -32.55547,-4.9967 -51,-7.2 -44.65,-5.45 -80.5,-5.5 -8.35,0 -13.45,1.3 -1.33984,0.3535 -2.55,0.8 -0.46211,9.0488 -2.35,23.85 -1.05,17.05 5.1,26.9 4.7,7.4 14,12.55 6.85,3.8 18,7.1 65.6,19.7 149.3,16.1 59,-2.55 151.35,-19.35 49.65,-8.95 77.7,-17.95 29.4082,-9.4176 51.95,-22.95 5.3793,-10.2281 8.6,-21.45 -163.282,-10.2207 -326.15,5.8 m -133.2,-548.4 q -0.55,-7.4 -4.4,-12.8 -4.7,-6.4 -13.85,-9.6 -6.85,-2.4 -17.4,-3.3 -4.83359,-0.4332 -9.7,-0.7 -8.65137,1.1682 -13.8,1.85 -25.46719,3.3707 -56.2,2.8 -37.08457,7.0111 -70.95,23.05 -4.95,2.45 -5.35,5.25 -0.5,3.15 3.05,5.1 2.85,1.55 6.95,1.8 81.35,3.6 160.35,1 -5.25,8.2 -15.05,15.4 -6.15,4.55 -18.7,11.6 -17.25,9.8 -26.5,14.25 -15.1,7.25 -28.1,10.5 -11.5,3 -26.4,4.1 -8.9,0.65 -26.85,0.9 -16.75,0.25 -25.8,-0.35 -14.25,-0.95 -25.2,-4.3 -17.15,-5.15 -30.5,-16.85 5.9,18.55 16.25,35.3 10.4,16.7 24.35,30.2 -14.85,-1.45 -26.7,-11.75 -11.95,-10.4 -15.3,-24.9 -17.95,26.95 -24.75,55.25 -4.25,18 -5.35,45 -3.4,73.4 9.1,145.15 3.4,18.85 7.3,30.25 5.6,16.15 14.7,26.75 10.6,12.25 26.25,16.25 16.6,4.25 29.15,-3.75 6.6,-4.25 11.95,-12.15 3.75,-5.65 8.15,-15.35 5.4,-12.15 12.05,-30.45 7.35,-20.7 11.15,-30.95 13.85,-37.05 28.95,-58.1 10.2,-14.2 35.4,-38.85 25.1,-24.6 35.35,-38.9 21.8,-30.7 30.35,-75.6 1.96504,-10.3014 3.3,-22.15 -4.16465,-0.3346 -8.9,0 -10.8,1.25 -16.2,1.65 -9.45,0.75 -15.95,-0.9 11.05,-3.7 21.4,-14 6.65,-6.6 16.75,-20.4 3.34746,-4.4633 5.65,-7.85 1.28965,-1.9236 2.25,-3.5 4.05,-6.45 5.95,-12.25 2.3,-6.95 1.8,-13.7 m 333.55,287.2 q -0.9902,11.4852 -6.2,22.25 -7.55,15.7 -22.7,28.35 -13.3,11.15 -31.55,19.15 -14,6.1 -34.65,11.85 -23.8,6.2 -35.6,9.5 -8.75,2.5 -13.6,4.9 -7.15,3.5 -10.9,8.6 -6.55,8.9 -4.5,27.1 0.55,4.95 1.75,14.95 0.75,8.65 -0.5,14.7 -3.3,16.4 -20.85,26.4 -15.05,8.6 -35.15,10 -26.05,1.75 -51.6,-5.45 -16.36367,-4.6295 -31.05,-12.55 -7.12227,-2.6852 -14.1,-6.4 -16,-8.45 -31.4,-22.25 -13.1,-11.75 -26.5,-28.1 -13.65,-16.65 -18.9,-21.7 -11.65,-11.15 -23.6,-14.2 -9.21152,-2.2949 -18.75,-0.15 -3.78223,6.8615 -8.9,13.75 -8.8,11.8 -24.35,27.15 -6.6,6.6 -8.9,9.2 -4.8,5.35 -7.6,10.2 -3.3,5.9 -4.2,12.05 -0.95,6.85 1.35,12.45 6.1,15.55 35.1,19 25.05,2.9 56.65,1.4 2.15781,-0.099 4.55,-0.25 0.48457,-0.1422 0.95,-0.3 12.85,-4 22.5,-5.35 19.95,-2.75 45.7,2.85 11.35,2.5 45.55,12.95 28.25,8.7 45,10.75 1.76562,0.2197 3.5,0.4 11.21211,-1.3025 24.1,-4.6 5.3,-1.35 25.2,-7.1 15.6,-4.5 25.3,-6.5 17.9,-3.65 38.95,-4.3 17.35,-0.55 39.3,0.9 17.5,1.15 39.75,3.7 11.7,1.35 39.65,4.95 46.85,6.25 140.75,18.75 13.7,1.85 21.15,1.7 11.75,-0.15 20.1,-4.35 3.05,-1.5 9.3,-4.9 0.2404,-0.1092 0.45,-0.2 -0.7842,-2.1762 -1.7,-4.35 -7.8,-18.35 -22.2,-35.65 -11.35,-13.7 -29.45,-29.45 -21.45,-17.85 -32.15,-26.8 -62.7014,-52.5064 -115.05,-115 m 465.4,-947.05 q -0.3158,-0.42168 -0.65,-0.85 l 74.65,59.25 q -15.65,-42.9 -46.85,-80.85 -29.3,-35.6 -69.4,-63.4 -36.75,-25.45 -82.55,-44.6 -40.55,-16.9 -89.45,-29.4 -12.05,-3.1 -19.9,-3.15 -11.15,-0.1 -18.2,5.3 6.1998,-13.67441 15,-25.65 -9.8332,0.22441 -19.9,1.7 -36.5,5.35 -65.75,25.7 16.5,-34.6 39.15,-65.15 -4.0713,1.72461 -8,3.75 -0.2574,0.19258 -0.55,0.35 -9.5594,5.11641 -18.05,12.25 -12.1,10.25 -20.65,23.4 6.198,-24.6332 15.3,-48.3 -10.1062,5.79609 -17.65,14.8 -7.8,9.3 -11.55,20.5 -9.45,-15.2 -24,-26.35 -13.648,-10.45879 -29.65,-15.75 -0.5594,-0.16797 -1.15,-0.35 -0.4723,-0.1543 -0.95,-0.3 16.6,21.9 23.75,48.15 -26.25,-18.7 -56.85,-29.65 -30.65,-11 -62.75,-13.25 18.55,7.3 33.45,21.25 14.85,13.9 23.3,31.9 -23.95,-13.85 -50.85,-21.55 -26.85,-7.65 -54.55,-8.6 l 5.65,36.9 q -34.4,-12.65 -51.65,-18.9 16.95,30.35 18.5,33.15 -40.6,-15.4 -84.7,-17 -27.14688,-0.98379 -53.3,3.35 -0.14277,0.0238 -0.3,0.05 -16.2209,2.70137 -32.05,7.45 12.95,1.15 24.7,7.3 11.8,6.2 20.05,16.2 -42.15,-20.55 -93.25,-9.95 -48.6,10.1 -85.75,43.6 -33.85,30.5 -56.4,77.05 -19.6,40.65 -30,92.2 -10.85,53.55 -8.45,102 2.65,54.25 21.85,99 -12.8,-12.15 -32.65,-10.45 -19.35,1.65 -31.85,14.95 -12,12.6 -15.15,31.6 -3,17.95 2.65,35.65 2.09844,6.6158 5.3,13.1 4.3209,1.4516 9.3,2.45 10.6,2.15 32.5,4.55 14,2.3 33.5,9.5 60.5,22.4 111.9,62.75 10.05,8 16.9,14.7 8.75,8.5 14.6,16.95 1.65,2.5 12.25,21.45 7.3,13.1 14.25,19.9 -5.2,-31.85 -16,-62.6 28.4,58.65 38.8,141.1 0.61191,4.9107 1.15,10.05 -0.0508,8.9035 -0.2,15.85 -1.1,48.8 -5.75,87.25 -4.34707,36.5934 -12.4,69.15 -13.45879,54.3945 -37.25,97.6 -5.65,10.45 -17.85,30.85 -10.55,18.35 -15.75,31.75 -6.9,18 -7.65,34.95 -0.85,19.15 6.4,34.3 4.95,10.25 14.25,19.8 7.65,7.8 19,15.85 11.7,8.4 21.7,12.95 12.45,5.7 24.05,6.4 13.15,0.9 26.8,-4.4 12.35,-4.8 23.7,-14.1 7.7957,-6.2529 15.8,-15.1 1.83945,-2.0605 3.7,-4.25 5.01836,-5.8877 12.6,-16.05 8.93945,0.2291 19.95,-3.05 4.55,-1.4 15.55,-5.4 9.95,-3.65 15.5,-5.15 8.5,-2.35 28.4,-4.7 18.55,-2.2 28.25,-5.4 18.6,-6.15 31.5,-21.2 13.3,-15.55 14.85,-34.3 1.65,-19.4 -10.6,-36 -12.5,-16.9 -31.25,-19.4 -16.65,-2.25 -35.25,7.7 -13,6.95 -30.75,22.55 -4.85,-11 0.85,-24.4 4.8,-11.35 15.5,-21.45 16.7,-15.5 36.95,-22.95 21.75,-8 42.45,-4.55 5.3336,0.8852 10.65,2.55 4.1646,3.4996 8.7,7.15 11.65,9.4 35.25,27.9 43.3,35.1 107.75,102.45 50.25,52.5 51.55,53.85 29.65,30.5 53.2,52.1 20.3,18.65 22.85,21.05 12.7,12.25 21.05,22.7 20.0502,25.0912 31.85,59.9 2.6105,24.9926 0.6,50.6 -3.55,45.9 -21.35,87.5 -5.8,13.45 -15.55,31.8 -5.55,10.45 -16.85,31.2 -20.15,38.05 -26.2,65 -4.35,-35.2 3.9,-77.05 6.25,-31.55 21.85,-75.1 4,-11 5.3,-16.8 2.1,-9.5 0.7,-17.05 -1.55,-9 -8.6,-15.1 -7.2115,-6.2857 -15.15,-4.65 -0.1924,0.052 -0.4,0.1 -6.25,1.45 -10.4,7 -3.1,4.15 -6,12.35 -0.8221,2.2916 -2.05,5.8 -19.7283,24.1977 -43.5,45.15 -40.15,35.4 -87.8,57.95 36.55,-25.7 75.95,-65.1 24.1,-24.1 68.3,-73.75 5.35,-5.95 8.1,-9.7 3.0635,-4.2736 4.85,-8.35 -1.4021,1.0949 -2.95,2.05 -4.2,2.6 -12.6,5.65 -9.1,3.35 -12.75,5.35 -10.75,5.65 -20.55,18.55 -1.05,1.4 -15.85,23.8 -26.7,41.05 -68.2,69.3 -20.7342,14.0893 -43.1,23.55 -19.8928,10.4258 -41.15,18.9 -50.9,20.3 -105.7,28.1 -54.8,7.75 -109.3,2.45 -48.78945,-4.7471 -94.15,-19.75 -18.66309,-10.6123 -35.65,-24.45 -28,-22.85 -48.4,-52 -20.9,-29.9 -31.7,-63.45 -6.75,-20.85 -8.6,-25.25 -5.95,-13.75 -14.9,-20.75 -3.25,-2.6 -11.25,-7 -7.55,-4.15 -11,-7.15 -0.38984,-0.3389 -0.75,-0.7 -0.60293,0.1955 -1.15,0.45 -4.55,2.45 -4.4,9.1 0.1,5.15 2.9,11.65 8.4,19.15 11.25,33.1 3.85,18.7 -0.6,33.8 -14.2,-15.75 -29,-49.1 -10.15,-22.8 -11.85,-26.35 -7.1,-14.8 -14.05,-25.05 -2.6,-3.8 -4.65,-6.05 -2.85,-3.15 -5.85,-4.85 -3.4,-2.05 -7.25,-2.25 -4.05,-0.25 -7.25,1.75 -4.05,2.8 -6.35,9.75 -2.47871,7.0381 -3.4,14.75 0.74082,2.1613 1.5,4.4 46.5,135.8 76.05,206.75 42.45312,101.8152 90.45,178.7 -2.71133,-8.8426 -3.75,-16.85 -2,-15.9 2.1,-47.6 2.1,-16 2.65,-23.85 0.9,-13.25 -0.35,-23.8 -1.85,-16.15 -10.2,-36.65 -10.55,-23.5 -15.7,-35.2 -18.35,-41.55 -25.75,-83.85 -7.95,-44.95 -2.85,-87.3 9.4,35.25 25.25,68.3 15.85,33 37.5,62.45 44.4,60.55 98.1,82.15 24.95,10.05 55.25,12.85 -28.55,13.4 -60.3,17.8 -31.7,4.4 -62.95,-0.65 8.95,13.3 22.85,22.2 13.95,8.85 29.8,11.3 -17.35,3.35 -35,-0.55 -9.08594,-1.9818 -17.3,-5.7 1.24414,13.9348 5,27.55 4.8,17.45 13.4,33.2 16.9,30.85 51.65,60 18.25,15.45 34.6,24.25 11.05,5.85 24.8,10.65 10.8,3.7 25.95,7.6 28.45,7.4 52.95,10.9 28.35,4 53.8,3.1 11.03555,-0.4104 24.65,-1.9 v 0.7 q 63.5285,-12.5227 124.85,-38.1 84.515,-35.1945 154.4,-90.8 18.1656,-18.2213 30.6,-36.15 6.9,-9.8 14.75,-23.55 1.85,-3.3 13.4,-24.35 41.2,-75.5 89.1,-146.35 5.35,-7.9 8.55,-11.7 5.15,-6.15 10.6,-9.55 3.75,-2.35 7.55,-3.25 4.35,-1.05 8.05,0.1 6,1.9 8.95,8.6 2.65,6.15 1.55,13.05 -0.9,6 -4.25,12.65 -2.4,4.7 -7.1,11.6 -11.8,17.45 -35.15,47.25 -25.55,32.6 -35.75,47 -19,26.8 -30.55,50.65 -13.8,28.5 -18.45,55.6 -1.8,11.05 -1.45,19.4 0.1828,3.8594 0.8,7.35 100.8717,-39.002 177.65,-177.75 51.65,-93.3 69.4,-179.15 8.25,-39.85 11.35,-88.7 2.2,-35 2.3,-89.8 0.2,-77.35 0.45,-90.1 1.05,-51.1 5.65,-89.65 3.2934,-28.0113 9.05,-50.45 l 0.5,-25.45 q 7.8908,-13.0355 18.65,-25.8 1.8973,-2.2492 3.9,-4.55 18.6686,-20.973 47.9,-44.25 15.6,-12.35 21.6,-18.1 11.4,-10.85 17.25,-21.75 4.4,-8.25 6.9,-19.1 1.9,-8.3 3.1,-20.3 6.1,-62.6 -14.15,-124.05 -20.25,-61.4 -62.45,-108.2 5.7,6.6 8.55,16.8 2.15,7.7 2.95,19.1 1.9,27.55 -2.4,62.05 -2.6,20.7 -10.35,61.7 -1.7,-29.45 -11.85,-57.55 -10.15,-28.1 -27.65,-51.85 -10,-13.75 -24.5,-28.4 -10.35,-10.55 -27.4,-25.7 -10.75,-9.65 -18.4,-15.7 -10.35,-8.15 -19.85,-13.8 -5.6,-3.25 -17.05,-8.95 -8.4449,-4.2225 -13.6,-7 18.3504,-58.167 30.05,-107.5 16.55,-69.75 22.5,-132.2 1.6,-16.3 1.5,-26.9 -0.1,-14.8 -3.15,-26.6 -3.55,-13.75 -11.5,-24.4 M 1316,1330 q -5.8441,-1.4445 -11.75,-2.8 -1.1176,1.1471 -2.2,2.2 -34.2408,-0.1896 -72.95,11.4 -24.0113,7.1973 -49.75,18.95 -24.1,11.05 -74.2,38.8 -47.9,26.5 -74.55,38.2 -7.85,3.45 -12.85,4.6 -7.35,1.75 -13.25,0.25 -9.05,-2.2 -15,-11.4 -5.2,-8.15 -6.5,-18.95 -0.6334,-4.9215 -0.9,-19.1 0.82207,3.465 1.95,6.9 4.45,13.45 13.05,24.3 -7.3,-16.2 -8.8,-34.35 -1.5,-18.15 3.05,-35.4 -1.65,25.55 8.5,49.65 -1.85,-19.25 5.9,-37.75 4.4264,-10.5266 11.15,-19 -1.6297,4.3289 -2.95,8.8 -4.35,14.95 -4.45,30.3 6.3,-21.3 20.65,-39 14.45,-17.75 34.1,-28.1 -12.7,10.9 -21.25,25.55 -8.55,14.7 -11.65,31.05 10.7,-24.75 31.65,-42.9 20.95,-18.2 46.85,-25.2 -16.7,10.6 -30.5,24.9 -3.8439,3.9689 -7.4,8.15 9.8053,-9.7225 23.7,-17.7 20.05,-11.55 56.2,-22.75 60.5,-18.95 98.9,-23.2 44.5832,-5.0025 80.1,5.35 69.7621,36.4893 132.4,83.75 39.2,29.55 61.65,56.5 15.908,19.0844 25.3,38.75 -51.2844,-50.0887 -115.7,-84.7 -57.092,-30.6734 -118.5,-46.05 m -168.4,296.75 q 36,7 57.65,8.25 46.65,2.8 92.1,-12.35 27.7494,-9.2295 51.9,-24.15 15.4123,-9.4699 29.35,-21.25 -18.7,49.1 -69.15,79.7 -23.1,14 -50.1,22 -26.7,7.9 -54.1,9.05 -50.15,2.1 -106.7,-15.3 -45.25,-13.85 -100.7,-42.45 -1.2877,-0.6729 -2.5,-1.3 16.0895,-8.0893 36.2,-11.5 26.4,-4.45 58.55,-0.7 15.35,1.85 57.5,10 m 310.5,437.75 q 15.95,38.5 9.3,80.55 -6.8,43.1 -34.8,72.2 10.3,-34.35 10.25,-71.35 -0.05,-36.15 -9.95,-71.5 -9.9,-35.3 -28.6,-66.25 -8.0256,-13.2297 -17.35,-25.15 11.94,7.4281 22.85,16.6 33,27.75 48.3,64.9 m -69.25,-554 q 9.9,6.7 15,13.65 6.65,9.1 4.5,17.85 22.75,-4.85 43,-17.75 -9,15 -22.95,26.25 -13.95,11.2 -30.55,16.75 -2.1,0.7 -13.6,3.9 -8.3,2.3 -13.25,4.6 -6.3,2.8 -14.7,8.5 -4.7,3.2 -14.05,9.8 -17.05,11.4 -30.15,11.2 1.85,-2.05 2,-5.1 0.085,-2.583 -1.15,-4.6 -0.1896,-0.3555 -0.45,-0.7 -10.6,6.15 -24.65,10.2 -10.65,3.05 -26.25,5.55 -61.05,9.5 -121.5,3.15 -18.85,-2.3 -28.3,-3.4 -16.9,-2 -28.45,-2.35 -24.35,0.35 -36.55,0.35 -21.55,0 -35.95,-3.85 -8.3,-2 -10,-6.9 -1.5,-4.45 2.65,-9 2.55,-2.8 8.85,-6.85 13.05,-8.55 19.7,-23.6 0.9135,-2.0828 1.65,-4.2 4.5971,-12.9744 2.4,-26.2 -34.95,17.1 -66.65,54 -20.1,23.4 -51.1,71.5 -8.35,-44.3 9.45,-91.2 16.55,-43.5 51.05,-78.45 30.3,-30.7 74.65,-55.6 29.2031,-16.4607 69.3,-32.75 -26.2807,16.9949 -39.3,39.85 54.65,-23.7 114.5,-30.75 -16.2,7.45 -42.9,17.65 -35,13.4 -43.35,16.85 -50.8,20.9 -78.9,45.65 -2.4,2.15 -3.5,3.7 -1.65,2.25 -1.75,4.55 -0.2,3.3 2.8,5.8 2.8,2.35 6.45,2.45 3.1,0.05 6.75,-1.35 2,-0.8 6.4,-3.05 39.2,-20.6 83.45,-30.5 43.8,-9.8 88.55,-8.25 45.25,1.55 87.25,14.6 43.35,13.45 79.6,38.05 m -148.25,41.25 q 1.45,-0.4 2,-0.65 1.05,-0.5 1.65,-1.25 1,-0.8 1.25,-2.6 0.95,-3.35 -0.3,-6.8 -1.25,-3.55 -4.2,-5.2 -2.25,-1.35 -5.25,-1.3 -2.65,0.05 -5.4,1.15 -0.6105,0.2607 -1.2,0.55 -1.7922,3.5934 -1.15,6.85 0.3,2 2,4.85 1.5,2.95 3.75,4.15 2.65,1.4 6.85,0.25 m -156.4,20.15 q -5.05,3.7 -6.45,9.2 4.85,2.7 11,3 5.65,0.3 11.6,-1.35 3.1967,-0.8631 6.7,-2.35 17.6504,-1.8619 43.85,-0.7 22.3,1 27.55,1.1 7.6598,0.1232 14.4,-0.1 -1.7195,-3.124 -3,-5.85 -4.15,-8.8 -5.35,-16.75 -1.5,-9.25 0.8,-17.75 0.6424,-2.3637 1.5,-4.5 -18.4818,0.2891 -36.35,6.85 -19.25,7 -34.35,20.05 -4.05,3.4 -5.55,4.35 -3.3,2.15 -6.3,2.5 -1.75,0.15 -4.6,-0.3 -3.85,-0.65 -4.65,-0.7 -5.75,-0.35 -10.8,3.3 m -432,-21.6 q -1.46367,0.35 -2.75,1.05 -0.0836,0.384 -0.35,1.05 -0.2,0.65 -0.1,1.2 0,1.4 0.85,2.65 1.6,3 4.75,4 1.55,0.4 3.15,-0.15 1.65,-0.55 2.5,-1.85 0.95,-1.25 0.75,-3.65 0,-2.3 -1.5,-3.6 -0.95,-0.65 -2.75,-0.9 -2.25,-0.4 -4.55,0.2 m -102.9,21.1 q 2.35,-2.45 5.45,-3.65 -1.8,0.75 -1.95,3 -0.15,2.2 1.3,3.75 2.05,2.15 7.25,2.85 11.7,1.6 26.2,1.95 5.94727,0.1232 14.55,0 -2.92676,-4.2559 -4.75,-9.35 -3.4,-9.55 -2,-19.2 0.64512,-4.5564 2.5,-10.55 -2.72832,-0.3381 -5.9,0.2 -4.15,0.7 -9.7,3.1 -12.65,5.5 -21.65,13.4 -9.75547,8.4357 -14.25,18.8 1.12598,-2.357 2.95,-4.3 m -16.55,-39.8 q 4.9,1.8 11.1,2.7 4.1,0.55 11.4,1.05 -5.2,-3.4 -8.2,-9 -3,-5.7 -2.8,-11.85 1.7,8.5 9.45,13.9 7.75,5.35 16.3,3.85 -4.2,-3.85 -5.9,-9.6 -1.65,-5.7 -0.25,-11.3 2.25,8 9.35,13.2 7.05,5.25 15.3,5.05 -4.55,-4 -7.25,-9.45 -2.7,-5.6 -2.9,-11.55 2.15,6.45 8.3,11.1 5.6,4.2 12.95,5.8 6.15,1.25 14.1,0.85 3.01953,-0.1557 7.7,-0.7 1.76934,0.052 3.7,0.1 25.4,1 49.5,10.5 23.24004,9.1318 42.1,24.9 0.47227,-0.027 0.8,-0.05 1.5,0 2.75,-0.35 2.3,-0.85 4.6,-4.25 1.61387,-2.1633 2.4,-4.4 -34.67559,-23.7744 -75.85,-36.75 -36.75605,-11.5574 -74.25,-13.15 -11.99141,-0.4705 -24.05,0.05 -36.60059,1.6129 -54.05,17.15 8.1043,7.7041 14.65,10.55 8.05,3.5 16.65,4.15 -5.7,-1.4 -9.85,-6 -4.2,-4.6 -5,-10.5 2.4,4.9 7.2,8.65 4.3,3.35 10.05,5.35 m -57.5,-106.5 q -5.8,4.05 -9.2,9.4 -3.8,6.05 -3.45,12.25 0.8,12.05 17.25,22.5 17.56152,11.3072 41.35,19.3 31.84961,-4.5988 65.35,-2.65 76.47383,4.4926 140.1,41.95 -3.04668,-11.2486 -12.15,-22 -8.65,-10.3 -24.5,-21.75 -34.52656,-25.052 -73.05,-43.5 -6.62109,-3.1773 -13.35,-6.15 -24.30098,-10.7125 -49.4,-18.6 -21.0291,-3.7687 -42.35,-2 -23.4,1.8 -36.6,11.25 M 727.6,523.5 q -4.6,17.3 -4.45,35.3 0.1,18.1 4.95,35.2 4.4375,15.63652 13.3,31.85 9.45332,13.05488 22.1,24.65 18.6,17.2 46.05,32.95 16.85,9.7 50.8,25.9 -23.2,-15.4 -42.15,-36 -19.1,-20.7 -32.45,-45 18.65,20.75 44.45,33.05 25.8,12.35 53.65,13.85 -28.7,-11.85 -53.4,-32.4 -24.1,-20 -42.05,-46.3 -17.95,-26.3 -27.8,-56.05 -10.15,-30.5 -10.75,-61.5 -8.7,32.8 -6.3,67.3 2.4,34.45 15.55,65.8 -15.75,-18.2 -24,-41.35 -8.25,-23.2 -7.5,-47.25 m 112.75,44.25 q -15.35,-27.5 -20.9,-59 -1.56055,-8.9373 -2.3,-17.85 -3.41543,34.66113 4.2,70.4 11.4,53.45 44.4,94.7 -10.85,-17.6 -16.25,-37.7 -5.4,-20.25 -4.75,-40.8 5.5,28.85 28.6,56.45 16.85,20.15 48,44.4 -38.85,-42.05 -52.7,-105.75 -12.35,-57.05 -2.9,-121.25 -12,25.7 -15.9,54.25 -3.95,28.6 0.75,56.65 -10.3,-25.3 -12.2,-53 -1.9,-27.7 4.85,-54.15 -12.4,26.3 -13.15,56.05 -0.8,29.8 10.25,56.6 m 77,-129.65 q -2.62246,-14.27773 -3.75,-28.4 -5.51973,22.91465 -7.3,46.75 -2.52207,33.24629 2.5,65.7 -1.73105,-13.54551 0.2,-27.35 2.35,-16.75 9.85,-31.7 -3,16.5 0.25,35.85 2.7,15.8 9.9,35.05 13,35 33.75,66.5 4.62871,7.0043 9.55,13.7 -19.89258,-45.08535 -27.2,-95.85 -11.35,-78.55 10.15,-152.5 -14.35,14.8 -24.05,33.35 -9.7,18.55 -13.85,38.9 m 118.45,-90 q -11.0613,15.13262 -19.95,32.75 -15.55,30.8 -23.25,66.75 -7.1,32.7 -7.8,70.05 -0.65,32.95 3.7,70.7 -1.05,-33.25 8.4,-65.6 9.5,-32.4 28.35,-59.75 -11.35,39.45 -2.25,90.15 3.1033,17.2291 10.15,41.6 -4.1434,-23.04238 -4.35,-47.7 -0.35,-44.95 12.45,-90.55 22.05,-79.05 84,-161.25 -45.15,36 -66.45,59.05 -33.5,36.1 -45.2,73.55 4.05,-29.7 13.8,-58.05 3.8016,-11.05586 8.4,-21.7 m 780.05,994.1 q 1.1143,4.6227 2.65,9.25 7.6,22.75 24,39.15 -31.95,-21.05 -57.65,-50.1 16.65,24.15 28.1,37.7 16.65,19.75 33.8,32.05 20.1,14.35 42.6,19.45 24.6,5.6 45.75,-1.6 -28.5,1.05 -54.35,-14.1 -25.85,-15.1 -38.9,-40.5 12.3,10.65 28.85,14.25 16.5,3.6 32.15,-1 -9.15,1.3 -19.75,-1.55 -8.45,-2.25 -18.75,-7.45 -21,-10.7 -38.85,-26.45 -4.9982,-4.4119 -9.65,-9.1 m 3.75,-187.1 q -10.55,-0.35 -15.8,-0.6 -9.35,-0.4 -15.55,-2.25 -0.1945,-0.055 -0.4,-0.1 0.2336,0.1469 0.45,0.3 13.75,9.75 26.55,13.55 5.5,1.65 16.85,3.5 11.3,1.9 16.8,3.5 21.05,6.2 39.3,26.1 13.4,14.65 28.05,40.4 -6.8,-33.75 -34.4,-57.9 -27.55,-24.15 -61.85,-26.5 M 1354.6,711 q 51.95,-10.15 86.75,-14.3 47.6,-5.7 87.4,-3.85 77.85,3.85 165.8,38.5 56.959,22.47207 135.05,65.7 -6.4014,-7.47598 -14.7,-14.6 Q 1800,769.6 1771.75,752.85 1703,711.9 1631.1,677 q 75.7,5 152.95,45.1 66.5,34.5 132.2,94 -41.15,-55.3 -96.95,-97.4 -55.75,-42.1 -120.3,-66.7 59.95,-2.7 128.1,29.45 27.5,12.95 59.5,33 19.1896,11.98809 47.4,31.4 -42.1264,-37.94414 -82.6,-63.3 -54.9,-34.35 -109.8,-47.7 -34.65,-8.35 -74.5,-9.6 -34.85,-1.15 -75.35,3.1 -54.05,5.65 -106.8,19.05 -25.2613,6.42891 -49.9,14.55 20.9166,-4.97168 42.4,-8.4 85.75,-13.7 170.4,-0.95 -69.75,-4.75 -149.15,12.75 -65,14.35 -144.1,45.65 m 100.35,65.5 q -5.659,1.45938 -14.05,3.9 102.5764,4.55625 199.85,44.35 67.717,27.72168 125.2,69.4 -18.1205,-17.44258 -38,-33.35 -51.8,-41.4 -111.35,-69.05 62.25,18 117.55,53.4 55.3,35.4 97.7,84.35 -43.55,-52.75 -98.3,-94.5 -54.9,-41.85 -117.2,-69.75 67.95,5.25 131.25,34.25 25.3393,11.61797 48.3,26.3 -40.0143,-29.45469 -64.6,-45 -55,-34.75 -104.45,-50.7 -40.65,-13.05 -88.25,-17.15 -41.75,-3.6 -90.35,-0.45 37.45,4.95 73.35,17.85 35.8,12.9 67.9,32.9 -45.75,-15.75 -95.25,-22.65 -27.85,-3.85 -50.55,-3.55 -27.15,0.35 -49.95,6.45 48.05,2.45 95.4,12.65 47.3,10.25 92.1,27.85 -32.6,-8 -49.25,-10.65 -27.65,-4.35 -49.9,-2 -12.3,1.35 -27.15,5.15 m -144.5,-145.05 q -4.532,5.3252 -8.4,10.65 5.4131,-3.77129 11.55,-7.35 12.4,-7.2 37.65,-18.4 61.35,-27.1 94.05,-38.1 53.3,-18 98.2,-20.5 -57.9,16.9 -110.8,46.75 -53,29.9 -97.35,70.75 64.3,-35.85 124.7,-59.8 67.45,-26.75 132.05,-39.45 70.3,-13.8 137.65,-11 54.7777,2.28711 104.65,15.45 -20.0373,-12.32656 -46.15,-20.2 -32.2,-9.75 -86,-15.15 -40.45,-4 -64.7,-3 -35.65,1.55 -62.2,13.15 69.3,-33.7 147.8,-40.4 23.6893,-2.02188 46.95,-1.5 -7.5113,-2.13594 -15.3,-3.95 -49.8,-11.65 -105.05,-8.3 -48.55,3.05 -103.6,17.65 -43.8,11.65 -100.15,33.1 51.7,-33.3 109.45,-55.45 57.85,-22.15 118.55,-31.9 -92.35,5.5 -179.3,41.55 -86.9,35.95 -156.1,97.3 -17.25,15.3 -28.15,28.1 M 1350.5,500.5 q -31.1,21.95 -50,43.65 -5.6094,6.4377 -10.3,13 17.9375,-18.2959 39.25,-33.8 48.25,-35.1 104.8,-49.25 -42.05,19.1 -75.05,52.95 -32.95,33.8 -50.95,76.3 62.85,-77.7 143.35,-126.1 86.65,-52.15 178.4,-60.4 -71.45,-7.05 -146.4,16.6 -69.4,21.9 -133.1,67.05 m 73.3,-196.7 q -2.7742,0.66523 -5.6,1.45 -25.55,7.1 -54.6,24.1 -62.5,36.7 -108.8,94.25 -46.45,57.65 -68.8,126.4 17.1,-39.35 56.25,-76.35 24.7,-23.3 76.25,-60.15 -41.75,42.6 -73.9,93.3 -32.15,50.75 -52.85,106.7 14.15,-23.85 23.1,-37.4 33.3,-50.15 78.55,-90.75 45.25,-40.55 98.7,-68.25 53.45,-27.55 112.75,-41.05 44.5275,-10.09941 89.55,-11.65 -19.5307,-8.12891 -45.45,-7.75 -22.6,0.35 -61.2,8.6 -46.3,9.8 -69.75,16.5 -38.25,10.9 -66.4,25.75 41.8,-35.75 92.65,-58.4 50.95,-22.65 105.35,-29.6 -54.6,-4.3 -108.35,10.55 -53.8,14.9 -98.4,46.7 25.3,-42.55 70.6,-67.6 5.1559,-2.84531 10.35,-5.35 m -92.3,9 q -7.7479,1.2123 -15.5,2.85 -40,8.4 -75.25,27.85 -32.15,17.65 -48.4,39.75 23.35,-41.4 59.85,-73.15 36.55,-31.8 80.65,-49.1 -61.35,20.55 -115.5,55.75 -24.2,15.8 -40,31.05 -19.75,19.15 -29.6,40.2 20.1477,-50.38652 49.1,-96.3 -35.2621,39.2625 -62.6,89.1 -37,67.5 -56.75,149.05 42.35,-72.6 98.25,-134.5 -23.25,42.65 -34.4,90.55 -11.2,47.9 -9.25,96.45 7.5,-47.4 28.25,-92.25 20.3,-43.85 51.55,-81.65 31.2,-37.75 70.5,-65.95 23.682,-17.00859 49.1,-29.7 z"
             id="path8"
             inkscape:connector-curvature="0"
             style="fill:#ffffff;stroke:none" />
        </g>
      </g>
    </g>
  </g>
  <g
     id="Layer_3"
     transform="translate(-398.98577,-168.6)" />
</svg>
